<svg width="259" height="258" fill="none" xmlns="http://www.w3.org/2000/svg"><mask id="a" style="mask-type:alpha" maskUnits="userSpaceOnUse" x="0" y="0" width="259" height="258"><ellipse cx="129.352" cy="128.862" rx="129.352" ry="128.86" fill="#C4C4C4"/></mask><g mask="url(#a)" stroke="#fff" stroke-miterlimit="10"><path d="M129.431 161.085c17.481 0 31.653-14.172 31.653-31.654 0-17.481-14.172-31.653-31.653-31.653-17.482 0-31.654 14.172-31.654 31.653 0 17.482 14.172 31.654 31.654 31.654Z"/><path d="M129.429 165.833c20.104 0 36.401-16.298 36.401-36.402 0-20.104-16.297-36.401-36.401-36.401-20.104 0-36.402 16.297-36.402 36.401 0 20.104 16.298 36.402 36.402 36.402Z"/><path d="M129.429 171.29c23.118 0 41.858-18.741 41.858-41.858 0-23.118-18.74-41.859-41.858-41.859S87.57 106.314 87.57 129.432c0 23.117 18.741 41.858 41.859 41.858Z"/><path d="M129.431 177.57c26.587 0 48.139-21.552 48.139-48.139 0-26.586-21.552-48.138-48.139-48.138-26.586 0-48.138 21.552-48.138 48.138 0 26.587 21.552 48.139 48.138 48.139Z"/><path d="M129.427 184.799c30.579 0 55.368-24.789 55.368-55.368s-24.789-55.368-55.368-55.368c-30.58 0-55.368 24.79-55.368 55.368 0 30.579 24.789 55.368 55.368 55.368Z"/><path d="M129.431 193.093c35.159 0 63.661-28.502 63.661-63.662 0-35.159-28.502-63.661-63.661-63.661-35.16 0-63.662 28.502-63.662 63.661 0 35.16 28.503 63.662 63.662 63.662Z"/><path d="M129.428 202.652c40.438 0 73.22-32.782 73.22-73.22 0-40.44-32.782-73.221-73.22-73.221-40.439 0-73.221 32.782-73.221 73.221 0 40.438 32.782 73.22 73.221 73.22Z"/><path d="M129.429 213.629c46.501 0 84.198-37.696 84.198-84.198 0-46.5-37.697-84.198-84.198-84.198-46.502 0-84.198 37.697-84.198 84.198 0 46.502 37.696 84.198 84.198 84.198Z"/><path d="M129.428 226.265c53.48 0 96.834-43.354 96.834-96.834 0-53.48-43.354-96.834-96.834-96.834-53.48 0-96.834 43.354-96.834 96.834 0 53.48 43.354 96.834 96.834 96.834Z"/><path d="M129.431 240.788c61.5 0 111.357-49.856 111.357-111.357 0-61.5-49.857-111.356-111.357-111.356S18.074 67.93 18.074 129.43c0 61.501 49.856 111.357 111.357 111.357Z"/><path d="M129.428 257.488c70.724 0 128.057-57.333 128.057-128.057 0-70.723-57.333-128.056-128.057-128.056C58.704 1.375 1.371 58.708 1.371 129.43c0 70.724 57.333 128.057 128.057 128.057Z"/><path d="M129.428 276.695c81.332 0 147.265-65.932 147.265-147.264 0-81.332-65.933-147.264-147.265-147.264-81.332 0-147.264 65.932-147.264 147.264 0 81.332 65.932 147.264 147.264 147.264Z"/><path d="M129.429 298.789c93.534 0 169.358-75.824 169.358-169.358S222.963-39.927 129.429-39.927-39.93 35.897-39.93 129.43s75.825 169.359 169.36 169.359Z"/><path d="M129.429 324.188c107.561 0 194.757-87.195 194.757-194.757 0-107.561-87.196-194.757-194.757-194.757S-65.328 21.87-65.328 129.431c0 107.562 87.196 194.757 194.757 194.757Z"/><path d="M129.428 353.398c123.693 0 223.966-100.273 223.966-223.966 0-123.694-100.273-223.967-223.966-223.967C5.734-94.535-94.539 5.738-94.539 129.432c0 123.693 100.273 223.966 223.967 223.966Z"/><path d="M129.429 387.001c142.252 0 257.57-115.318 257.57-257.57s-115.318-257.57-257.57-257.57-257.57 115.318-257.57 257.57 115.318 257.57 257.57 257.57Z"/></g></svg>