<svg width="1370" height="200" viewBox="0 0 1370 200" fill="none" xmlns="http://www.w3.org/2000/svg">
<path d="M19.2006 39.3138L12.7341 24.0295L3.67409 24.7555L1.46097 39.9362H0.527344L5.61062 5.14866L13.4603 4.87207C20.0305 4.63001 23.8343 7.50015 24.0072 12.8601C24.0642 15.6936 23.011 18.437 21.0727 20.5046C19.1344 22.5721 16.4645 23.7999 13.6332 23.9256L20.2726 39.2446L19.2006 39.3138ZM12.492 23.165C13.8621 23.1932 15.2238 22.9441 16.4952 22.4328C17.7666 21.9215 18.9215 21.1585 19.8905 20.1895C20.8595 19.2204 21.6226 18.0655 22.134 16.7941C22.6453 15.5227 22.8943 14.1609 22.8661 12.7908C22.6932 7.91504 19.4081 5.49443 13.2874 5.87481L6.37139 6.1169L3.77788 23.822L12.492 23.165Z" fill="white" stroke="white" stroke-width="0.5"/>
<path d="M30.3033 25.4808C30.1664 26.5242 30.0971 27.5752 30.0958 28.6275C29.9905 29.8722 30.1447 31.1253 30.5487 32.3073C30.9527 33.4893 31.5977 34.5747 32.4428 35.4945C33.2879 36.4144 34.3147 37.1489 35.4584 37.6514C36.602 38.1539 37.8374 38.4134 39.0866 38.4137C41.5293 38.3417 43.883 37.4805 45.7951 35.9587V37.0306C43.7839 38.502 41.3704 39.3226 38.8791 39.3821C37.5123 39.3913 36.1584 39.116 34.9036 38.5739C33.6488 38.0318 32.5206 37.2347 31.5905 36.233C30.6604 35.2314 29.9488 34.0471 29.501 32.7556C29.0531 31.4642 28.8789 30.0938 28.9892 28.7313C28.9892 21.1237 33.4846 13.2395 41.2305 13.1012C42.2086 12.9779 43.2017 13.0651 44.1433 13.3571C45.0849 13.649 45.9532 14.1388 46.69 14.7937C47.4268 15.4487 48.0151 16.2536 48.4154 17.1545C48.8157 18.0553 49.0188 19.0313 49.0111 20.0171C49.0202 21.8132 48.6551 23.5915 47.9391 25.2387L30.3033 25.4808ZM47.5933 24.2013C48.1132 22.8433 48.3827 21.4022 48.3886 19.9481C48.4012 19.0794 48.2223 18.2186 47.8646 17.4269C47.5068 16.6353 46.979 15.9324 46.3188 15.3678C45.6585 14.8033 44.882 14.3912 44.0444 14.1608C43.2068 13.9304 42.3287 13.8874 41.4726 14.0348C38.751 14.286 36.1931 15.4459 34.2109 17.3277C32.2287 19.2096 30.9375 21.7039 30.5453 24.4088L47.5933 24.2013Z" fill="white" stroke="white" stroke-width="0.5"/>
<path d="M72.8006 38.5885L73.423 35.1305C71.3354 37.4827 68.4012 38.9126 65.2621 39.1073C59.4181 39.1073 56.4096 34.7156 56.375 28.7332C56.375 20.6415 61.2508 13.0338 68.5472 13.0338C70.0978 13.0225 71.6331 13.3403 73.0518 13.9662C74.4705 14.5921 75.7403 15.5119 76.7773 16.6648L79.5783 1.34572L80.5465 1L73.6305 38.5885H72.8006ZM76.5698 17.8404C75.6048 16.6612 74.3919 15.7091 73.0173 15.0517C71.6426 14.3942 70.1401 14.0477 68.6164 14.0367C61.7004 14.0367 57.3087 21.4714 57.3432 28.7332C57.3432 34.3352 60.0405 38.2081 65.3312 38.1735C66.9736 38.0292 68.5683 37.5459 70.0146 36.7543C71.4609 35.9628 72.7274 34.8802 73.7342 33.5745L76.5698 17.8404Z" fill="white" stroke="white" stroke-width="0.5"/>
<path d="M100.361 39.314L101.33 34.4383C98.8425 37.1776 95.4313 38.9016 91.7508 39.2794C87.4629 39.2794 85.5264 36.6859 85.5955 32.3634C85.6171 31.1997 85.7562 30.0412 86.0105 28.9054L89.1227 13.4136H90.0564L86.9442 28.94C86.6988 30.0773 86.5599 31.235 86.5292 32.398C86.5292 35.856 88.0507 38.2765 91.7162 38.3457C95.546 37.866 99.0658 35.9955 101.606 33.0897L105.444 13.7248H106.378L101.33 39.0027L100.361 39.314Z" fill="white" stroke="white" stroke-width="0.5"/>
<path d="M128.966 37.9303C126.919 39.2851 124.503 39.9736 122.049 39.9014C120.685 39.8376 119.349 39.4898 118.127 38.8805C116.904 38.2711 115.822 37.4135 114.95 36.3623C114.078 35.3112 113.435 34.0896 113.061 32.7758C112.688 31.4619 112.593 30.0848 112.782 28.7321C113.024 21.159 118.107 13.5168 125.853 13.7934C127.3 13.793 128.73 14.1012 130.048 14.6975C131.365 15.2938 132.541 16.1645 133.495 17.2514L133.046 18.1852C132.192 17.0666 131.094 16.1578 129.836 15.5286C128.577 14.8993 127.191 14.566 125.784 14.5542C118.695 14.3121 113.958 21.4703 113.716 28.3863C113.526 29.6314 113.598 30.9024 113.929 32.1177C114.26 33.333 114.841 34.4656 115.636 35.4427C116.431 36.4198 117.421 37.2198 118.543 37.7912C119.666 38.3625 120.896 38.6928 122.153 38.7604C124.626 38.8205 127.051 38.0805 129.069 36.6508L128.966 37.9303Z" fill="white" stroke="white" stroke-width="0.5"/>
<path d="M140.027 26.5172C139.821 27.5561 139.682 28.6073 139.612 29.6641C139.428 30.8922 139.498 32.1448 139.818 33.3446C140.139 34.5443 140.702 35.6656 141.474 36.6384C142.246 37.6112 143.209 38.4149 144.305 38.9997C145.4 39.5846 146.604 39.9381 147.842 40.0382C150.3 40.1487 152.727 39.4569 154.758 38.0671C154.758 38.4129 154.758 38.7932 154.758 39.139C152.687 40.427 150.279 41.0653 147.842 40.9717C146.477 40.8782 145.147 40.5017 143.935 39.8659C142.724 39.2301 141.658 38.3491 140.806 37.279C139.954 36.2088 139.334 34.9729 138.985 33.65C138.637 32.3271 138.568 30.946 138.782 29.5949C139.197 22.0218 144.384 14.518 152.13 14.933C153.103 14.8824 154.075 15.038 154.984 15.3895C155.892 15.741 156.717 16.2803 157.402 16.9724C158.088 17.6646 158.619 18.4937 158.962 19.4055C159.305 20.3174 159.451 21.2916 159.392 22.2639C159.275 24.0533 158.78 25.7975 157.939 27.3817L140.027 26.5172ZM157.317 26.5172C157.933 25.1998 158.307 23.7828 158.423 22.3332C158.496 21.4776 158.382 20.6163 158.089 19.8093C157.795 19.0023 157.33 18.2691 156.724 17.6603C156.119 17.0515 155.388 16.5818 154.583 16.284C153.777 15.9861 152.917 15.8673 152.061 15.9357C149.306 15.9934 146.651 16.9817 144.529 18.7396C142.407 20.4976 140.942 22.9218 140.373 25.6181L157.317 26.5172Z" fill="white" stroke="white" stroke-width="0.5"/>
<path d="M178.03 39.0382C179.936 41.1257 182.548 42.4319 185.361 42.7037C186.187 42.8409 187.032 42.8111 187.846 42.6161C188.66 42.4211 189.426 42.0647 190.1 41.5682C190.774 41.0717 191.342 40.4451 191.769 39.7254C192.196 39.0057 192.475 38.2077 192.589 37.3784C192.796 34.8541 191.655 33.1943 187.505 30.7737C183.356 28.3531 182.007 26.2091 182.249 23.3735C182.372 22.4917 182.668 21.643 183.122 20.8771C183.576 20.1112 184.178 19.4432 184.892 18.9121C185.607 18.3811 186.42 17.9977 187.284 17.784C188.148 17.5704 189.046 17.5308 189.926 17.6677C192.721 17.9195 195.34 19.1431 197.326 21.1257L196.773 21.921C194.974 19.9534 192.51 18.7216 189.857 18.463C189.103 18.3395 188.332 18.366 187.588 18.5409C186.845 18.7157 186.143 19.0355 185.523 19.482C184.903 19.9285 184.377 20.4929 183.976 21.1428C183.574 21.7928 183.305 22.5155 183.183 23.2697C182.975 25.6903 183.978 27.5231 188.059 29.84C192.139 32.1569 193.764 34.3353 193.522 37.3092C193.396 38.2613 193.08 39.1785 192.593 40.0065C192.106 40.8346 191.459 41.5567 190.689 42.1304C189.918 42.7042 189.041 43.1179 188.108 43.347C187.175 43.5761 186.206 43.6161 185.258 43.4646C182.294 43.1978 179.535 41.8426 177.512 39.6606L178.03 39.0382Z" fill="white" stroke="white" stroke-width="0.5"/>
<path d="M212.265 44.845C210.704 45.5033 209.008 45.7763 207.32 45.6405C203.862 45.2947 202.409 43.462 202.721 40.4535C202.865 39.4295 203.108 38.422 203.447 37.445L208.634 21.0885L204.761 20.6735L205.072 19.7744L208.945 20.1894L210.882 14.2417H211.746L209.844 20.155L218.697 21.0885L218.386 21.9876L209.533 21.0885L204.311 37.5487C203.995 38.4448 203.774 39.3721 203.654 40.315C203.378 42.9777 204.519 44.3265 207.458 44.6031C209.079 44.6761 210.696 44.3926 212.196 43.773L212.265 44.845Z" fill="white" stroke="white" stroke-width="0.5"/>
<path d="M220.184 46.5747L227.826 22.0229L228.863 21.8154L227.134 27.3828C227.878 25.8662 229.044 24.5965 230.491 23.7255C231.939 22.8546 233.607 22.4195 235.295 22.4725C236.52 22.5965 237.666 23.133 238.546 23.994L238.165 24.9967C237.361 24.1048 236.249 23.5491 235.053 23.4406C231.595 23.0256 228.656 25.792 226.131 30.5641L221.117 46.7132L220.184 46.5747Z" fill="white" stroke="white" stroke-width="0.5"/>
<path d="M242.35 35.5776C242.05 36.5984 241.819 37.6382 241.659 38.6899C241.355 39.8989 241.307 41.1577 241.516 42.3864C241.725 43.6152 242.187 44.787 242.873 45.8276C243.559 46.8681 244.454 47.7546 245.501 48.4308C246.548 49.107 247.724 49.5582 248.955 49.7556C251.341 50.0527 253.76 49.593 255.871 48.4416C255.852 48.7871 255.852 49.1334 255.871 49.4789C253.681 50.6156 251.19 51.0387 248.748 50.6891C247.394 50.4845 246.098 49.9991 244.943 49.2641C243.788 48.529 242.799 47.5606 242.04 46.4209C241.282 45.2812 240.77 43.9955 240.537 42.6463C240.305 41.297 240.357 39.914 240.69 38.5861C241.762 31.0822 247.606 24.028 255.283 25.1346C256.256 25.168 257.211 25.4063 258.085 25.834C258.959 26.2618 259.733 26.8692 260.357 27.6167C260.98 28.3641 261.439 29.2347 261.703 30.1715C261.967 31.1084 262.03 32.0904 261.888 33.0534C261.611 34.8283 260.963 36.525 259.986 38.0329L242.35 35.5776ZM259.64 37.0646C260.375 35.8036 260.878 34.4218 261.127 32.9841C261.273 32.1367 261.232 31.2678 261.008 30.4377C260.783 29.6076 260.381 28.8365 259.828 28.1781C259.274 27.5197 258.584 26.9897 257.806 26.6253C257.027 26.2609 256.178 26.0707 255.318 26.0681C252.572 25.8916 249.847 26.6454 247.582 28.2076C245.317 29.7698 243.645 32.0492 242.834 34.6785L259.64 37.0646Z" fill="white" stroke="white" stroke-width="0.5"/>
<path d="M264.996 49.0987C266.704 51.314 269.164 52.827 271.912 53.352C272.725 53.5566 273.571 53.5957 274.4 53.4668C275.229 53.3379 276.023 53.0438 276.736 52.6019C277.449 52.16 278.066 51.5792 278.55 50.8942C279.034 50.2092 279.375 49.4341 279.554 48.6145C279.969 46.1248 278.931 44.3612 275.024 41.6985C271.116 39.0359 269.871 36.719 270.356 33.918C270.791 32.185 271.88 30.6879 273.395 29.7403C274.91 28.7927 276.733 28.468 278.482 28.8346C281.2 29.3702 283.646 30.8379 285.398 32.9843L284.81 33.7105C283.14 31.6443 280.784 30.2455 278.171 29.7683C276.69 29.4245 275.134 29.6783 273.839 30.4745C272.544 31.2708 271.616 32.5452 271.255 34.0216C270.84 36.4422 271.704 38.3096 275.577 40.9377C279.45 43.5657 280.937 45.8827 280.453 48.822C280.245 49.7551 279.854 50.6375 279.302 51.4176C278.749 52.1977 278.047 52.8598 277.235 53.3653C276.424 53.8708 275.52 54.2094 274.576 54.3615C273.632 54.5136 272.668 54.4761 271.739 54.2511C268.802 53.7558 266.146 52.2067 264.27 49.894L264.996 49.0987Z" fill="white" stroke="white" stroke-width="0.5"/>
<path d="M287.369 52.8702C289.051 55.1397 291.515 56.7046 294.285 57.262C295.091 57.4851 295.933 57.5444 296.763 57.4363C297.593 57.3282 298.392 57.0551 299.114 56.6328C299.836 56.2105 300.466 55.6476 300.967 54.9777C301.468 54.3077 301.83 53.5441 302.03 52.732C302.515 50.2076 301.512 48.444 297.639 45.816C293.766 43.1879 292.625 40.698 293.143 37.9316C293.615 36.2012 294.741 34.7219 296.283 33.8058C297.825 32.8896 299.663 32.6083 301.408 33.0213C304.149 33.5847 306.601 35.1045 308.324 37.3092L307.702 38.0354C306.099 35.928 303.791 34.4674 301.201 33.9204C299.706 33.5184 298.112 33.7259 296.77 34.4974C295.428 35.2689 294.447 36.5414 294.042 38.0354C293.593 40.4215 294.423 42.3234 298.227 44.9514C302.03 47.5795 303.483 50.0001 302.93 52.9394C302.704 53.8712 302.294 54.7483 301.724 55.5186C301.153 56.2889 300.434 56.9366 299.608 57.4236C298.783 57.9106 297.868 58.2269 296.918 58.3536C295.967 58.4802 295.001 58.4148 294.077 58.1611C291.153 57.6204 288.538 56.0043 286.746 53.6311L287.369 52.8702Z" fill="white" stroke="white" stroke-width="0.5"/>
<path d="M348.027 69.8146C347.266 66.0108 346.332 62.8986 345.502 60.063C341.076 63.521 336.131 66.9791 331.048 65.7688C329.981 65.5833 328.964 65.1789 328.061 64.5814C327.158 63.9838 326.388 63.2058 325.8 62.2964C325.212 61.387 324.819 60.366 324.645 59.2973C324.471 58.2285 324.52 57.1351 324.789 56.0862C326.241 49.7926 332.95 47.9254 338.067 47.5796C336.896 46.5231 336.002 45.1944 335.466 43.7109C334.929 42.2273 334.765 40.6344 334.99 39.0728C335.585 36.8419 337.028 34.9316 339.011 33.7495C340.994 32.5673 343.361 32.2067 345.606 32.7446C346.542 32.9104 347.433 33.2674 348.225 33.7932C349.017 34.3189 349.692 35.0023 350.208 35.8005C350.724 36.5988 351.07 37.4946 351.224 38.4325C351.378 39.3703 351.337 40.33 351.104 41.2514C349.963 45.9889 344.741 48.1675 340.039 48.4441C342.65 51.4235 344.669 54.8741 345.986 58.6107L356.706 49.4122L357.813 49.6889L346.228 59.4406C347.314 62.8473 348.215 66.3104 348.926 69.8146H348.027ZM338.794 48.3749C332.708 48.3749 326.933 51.0031 325.688 56.2593C325.439 57.2 325.391 58.1826 325.548 59.143C325.705 60.1034 326.063 61.0198 326.598 61.8325C327.133 62.6452 327.834 63.3358 328.654 63.8591C329.475 64.3825 330.396 64.7269 331.359 64.8697C335.993 65.9762 341.041 62.6219 345.191 59.2331C343.907 55.1767 341.719 51.4642 338.794 48.3749ZM350.171 41.1131C350.373 40.3103 350.409 39.4742 350.276 38.6568C350.143 37.8395 349.844 37.0581 349.396 36.3611C348.949 35.6642 348.363 35.0666 347.676 34.6051C346.988 34.1436 346.213 33.8282 345.398 33.6783C343.397 33.2091 341.292 33.5294 339.521 34.5728C337.749 35.6162 336.449 37.3023 335.889 39.2803C335.743 40.8511 335.981 42.434 336.584 43.892C337.186 45.35 338.135 46.6392 339.347 47.6486C343.946 47.5449 349.099 45.574 350.171 41.1131Z" fill="white" stroke="white" stroke-width="0.5"/>
<path d="M387.999 80.1171C387.532 80.0699 387.081 79.9175 386.681 79.6714C386.281 79.4252 385.942 79.0917 385.689 78.6958C385.436 78.2999 385.276 77.8519 385.221 77.3854C385.166 76.9189 385.217 76.446 385.371 76.0021C384.152 76.8092 382.777 77.3496 381.335 77.588C379.893 77.8264 378.416 77.7574 377.003 77.3854C376.174 77.2287 375.387 76.9024 374.691 76.4272C373.994 75.9519 373.403 75.3379 372.955 74.6236C372.507 73.9094 372.211 73.1103 372.087 72.2764C371.962 71.4425 372.011 70.5918 372.231 69.7777C374.063 63.2766 381.809 62.8616 390.454 65.4206L391.665 62.9999C393.567 59.1269 392.771 55.5653 388.691 54.4241C385.76 53.7672 382.697 54.0577 379.942 55.254V54.182C382.77 53.0204 385.896 52.7903 388.864 53.525C393.601 54.839 394.535 59.0232 392.322 63.4149L386.547 75.276C385.509 77.5237 386.236 78.7339 388.345 79.2872L387.999 80.1171ZM390.005 66.2851C380.668 63.6916 374.582 64.6943 373.13 69.9159C372.941 70.6238 372.903 71.3632 373.018 72.0867C373.132 72.8101 373.396 73.5017 373.793 74.1171C374.191 74.7325 374.712 75.2579 375.324 75.6599C375.936 76.062 376.626 76.3317 377.348 76.4516C378.83 76.7813 380.366 76.7817 381.848 76.4531C383.329 76.1245 384.721 75.4748 385.924 74.5498L390.005 66.2851Z" fill="white" stroke="white" stroke-width="0.5"/>
<path d="M410.996 86.8951L418.292 72.821C418.84 71.8292 419.292 70.7869 419.641 69.7087C420.713 66.2507 419.641 63.6226 416.183 62.5506C412.379 61.9405 408.484 62.7664 405.255 64.8676L396.161 82.3997L395.262 82.123L407.123 59.2656H408.16L405.912 63.5189C409.06 61.5722 412.821 60.8693 416.459 61.5478C417.337 61.727 418.161 62.1066 418.867 62.6569C419.573 63.2072 420.143 63.9134 420.531 64.7203C420.92 65.5271 421.116 66.4127 421.106 67.3081C421.095 68.2034 420.878 69.0843 420.471 69.8817C420.11 70.9779 419.659 72.0419 419.122 73.0631L411.826 87.068L410.996 86.8951Z" fill="white" stroke="white" stroke-width="0.5"/>
<path d="M435.68 94.8472L433.882 81.2918L420.257 89.7984L419.047 89.3834L433.709 80.2888L432.014 66.9756L433.052 67.3213L434.573 79.8393L447.161 71.9551L448.336 72.3355L434.746 80.8076L436.717 95.1239L435.68 94.8472Z" fill="white" stroke="white" stroke-width="0.5"/>
<path d="M444.332 97.7852L456.885 75.3082H457.922L445.197 98.0965L444.332 97.7852ZM459.997 68.7727C460.077 68.5293 460.246 68.3256 460.471 68.2034C460.696 68.0813 460.96 68.0499 461.207 68.1156C461.33 68.165 461.442 68.2382 461.537 68.3311C461.631 68.4241 461.707 68.535 461.758 68.6572C461.809 68.7794 461.836 68.9104 461.837 69.043C461.837 69.1756 461.811 69.3072 461.76 69.4297C461.681 69.6718 461.51 69.8729 461.283 69.9894C461.057 70.1059 460.793 70.1285 460.55 70.0521C460.425 70.0107 460.31 69.9432 460.213 69.8544C460.116 69.7655 460.039 69.6571 459.987 69.5363C459.935 69.4155 459.908 69.285 459.91 69.1534C459.912 69.0218 459.941 68.8921 459.997 68.7727Z" fill="white" stroke="white" stroke-width="0.5"/>
<path d="M461.624 89.315C461.13 90.2572 460.691 91.2269 460.31 92.2196C459.775 93.3475 459.481 94.5739 459.445 95.8213C459.409 97.0688 459.632 98.3101 460.1 99.467C460.568 100.624 461.27 101.671 462.164 102.543C463.057 103.414 464.121 104.091 465.289 104.53C467.614 105.293 470.122 105.293 472.447 104.53C472.447 104.841 472.274 105.222 472.171 105.533C469.8 106.23 467.27 106.157 464.943 105.326C463.658 104.856 462.485 104.123 461.499 103.175C460.512 102.227 459.734 101.084 459.214 99.8186C458.693 98.5532 458.442 97.1932 458.476 95.8254C458.51 94.4576 458.828 93.1119 459.41 91.8739C461.935 84.7158 469.058 78.9755 476.355 81.4999C477.301 81.7249 478.189 82.1469 478.961 82.7384C479.733 83.3299 480.371 84.0776 480.834 84.9325C481.298 85.7875 481.576 86.7305 481.65 87.7002C481.724 88.6698 481.593 89.6443 481.265 90.5598C480.66 92.2474 479.692 93.7818 478.43 95.0552L461.624 89.315ZM478.118 94.1561C479.088 93.0579 479.85 91.7926 480.366 90.4216C480.675 89.6206 480.806 88.7618 480.749 87.9051C480.693 87.0484 480.451 86.2144 480.039 85.4608C479.628 84.7073 479.057 84.0523 478.367 83.5414C477.677 83.0306 476.884 82.6761 476.043 82.5026C473.401 81.8079 470.602 82.0197 468.094 83.1043C465.586 84.189 463.515 86.0836 462.211 88.4849L478.118 94.1561Z" fill="white" stroke="white" stroke-width="0.5"/>
<path d="M491.668 113.559C489.99 113.822 488.273 113.692 486.654 113.179C483.196 111.968 482.435 109.721 483.472 107.024C483.85 106.067 484.325 105.151 484.89 104.292L493.881 89.6643L490.215 88.3502L490.734 87.5203L494.4 88.8344L497.858 83.5781L498.688 83.8548L495.402 89.1455L503.771 92.1541L503.252 92.984L494.884 89.9756L485.858 104.707C485.321 105.492 484.88 106.34 484.544 107.231C483.645 109.721 484.544 111.277 487.207 112.314C488.77 112.754 490.407 112.86 492.014 112.626L491.668 113.559Z" fill="white" stroke="white" stroke-width="0.5"/>
<path d="M505.881 119.262L509.858 94.1221L510.792 94.468L506.988 118.19L527.148 100.416L528.151 100.796L506.469 119.919L500.349 125.486C496.891 128.702 494.055 129.567 491.219 128.529C489.954 128.063 488.89 127.17 488.211 126.005L488.937 125.348C489.531 126.404 490.472 127.223 491.6 127.665C494.124 128.598 496.614 127.665 499.865 124.726L505.881 119.262Z" fill="white" stroke="white" stroke-width="0.5"/>
<path d="M514.113 128.947C516.776 128.497 519.3 127.494 519.888 125.869C519.978 125.672 520.028 125.459 520.033 125.243C520.038 125.027 519.999 124.811 519.918 124.611C519.837 124.41 519.716 124.228 519.562 124.076C519.408 123.923 519.225 123.804 519.024 123.725C519.17 123.381 519.437 123.103 519.775 122.943C520.113 122.784 520.498 122.754 520.856 122.86C521.755 123.172 522.032 124.209 521.617 125.385C520.718 127.875 517.329 129.154 514.217 129.638L514.113 128.947Z" fill="white" stroke="white" stroke-width="0.5"/>
<path d="M543.51 129.495C544.829 131.994 547.038 133.907 549.7 134.855C550.472 135.192 551.304 135.369 552.147 135.377C552.989 135.385 553.825 135.222 554.603 134.899C555.381 134.576 556.086 134.1 556.676 133.498C557.265 132.896 557.727 132.181 558.034 131.397C558.864 129.011 558.034 127.109 554.576 123.754C551.118 120.4 550.357 117.979 551.118 115.317C551.835 113.673 553.162 112.371 554.82 111.688C556.478 111.004 558.337 110.991 560.005 111.651C562.656 112.607 564.885 114.469 566.298 116.908L565.572 117.53C564.272 115.212 562.187 113.435 559.694 112.516C558.992 112.213 558.238 112.051 557.474 112.04C556.71 112.029 555.951 112.169 555.241 112.452C554.531 112.734 553.884 113.154 553.337 113.688C552.789 114.221 552.353 114.857 552.051 115.559C551.256 117.876 551.775 119.847 555.164 123.132C558.552 126.417 559.624 128.872 558.622 131.708C558.266 132.598 557.735 133.409 557.061 134.09C556.386 134.772 555.581 135.311 554.694 135.675C553.807 136.039 552.856 136.222 551.897 136.212C550.938 136.201 549.991 135.999 549.112 135.615C546.292 134.654 543.927 132.683 542.473 130.083L543.51 129.495Z" fill="white" stroke="white" stroke-width="0.5"/>
<path d="M575.353 143.055C573.688 143.396 571.963 143.313 570.339 142.812C566.881 141.741 565.982 139.666 566.881 136.761C567.243 135.799 567.694 134.872 568.229 133.995L576.771 119.091L573.036 117.88L573.555 117.05L577.255 118.261L580.367 112.866L581.232 113.143L578.085 118.537L586.557 121.304L586.073 122.134L577.601 119.367L569.025 134.375C568.545 135.202 568.14 136.07 567.815 136.968C566.985 139.493 567.815 141.014 570.616 141.948C572.198 142.355 573.849 142.414 575.457 142.121L575.353 143.055Z" fill="white" stroke="white" stroke-width="0.5"/>
<path d="M599.803 151.593C599.334 151.539 598.882 151.379 598.484 151.125C598.085 150.87 597.75 150.528 597.503 150.125C597.257 149.722 597.105 149.268 597.06 148.797C597.015 148.326 597.078 147.852 597.244 147.409C596.013 148.187 594.631 148.697 593.189 148.905C591.747 149.114 590.278 149.016 588.876 148.619C588.048 148.448 587.265 148.107 586.576 147.618C585.886 147.129 585.306 146.503 584.87 145.778C584.435 145.054 584.155 144.247 584.046 143.409C583.938 142.571 584.005 141.719 584.242 140.908C586.213 134.441 593.994 134.338 602.57 136.966L603.849 134.58C605.82 130.707 605.128 127.145 601.048 125.9C598.138 125.189 595.079 125.407 592.299 126.523V125.451C595.162 124.355 598.298 124.198 601.256 125.001C605.924 126.454 606.788 130.638 604.541 134.995L598.489 146.717C597.383 148.931 598.109 150.175 600.184 150.798L599.803 151.593ZM602.085 137.761C592.818 134.995 586.732 135.859 585.141 141.012C584.93 141.716 584.87 142.458 584.965 143.188C585.061 143.917 585.309 144.619 585.694 145.245C586.08 145.872 586.593 146.411 587.201 146.825C587.809 147.24 588.497 147.521 589.222 147.651C590.694 148.015 592.227 148.052 593.715 147.759C595.202 147.466 596.608 146.851 597.832 145.957L602.085 137.761Z" fill="white" stroke="white" stroke-width="0.5"/>
<path d="M612.769 154.776L614.948 129.463L615.916 129.705L613.806 153.634L632.687 134.477L633.69 134.788L613.391 155.536L607.686 161.519C604.228 164.977 601.703 166.014 598.799 165.184C597.507 164.812 596.384 164.006 595.617 162.902L596.309 162.176C596.963 163.189 597.956 163.936 599.11 164.285C601.703 165.046 604.124 163.939 607.167 160.827L612.769 154.776Z" fill="white" stroke="white" stroke-width="0.5"/>
<path d="M644.172 163.803L654.546 141.568L651.088 140.6L651.503 139.735L654.961 140.669L657.52 135.067C659.595 130.675 662.43 129.188 665.024 129.845C666.433 130.222 667.661 131.094 668.482 132.3L667.859 132.992C667.127 131.877 666.005 131.076 664.712 130.744C662.257 130.122 660.079 131.885 658.384 135.447L655.86 140.911L661.462 142.363L661.012 143.228L655.48 141.775L645.106 164.045L644.172 163.803Z" fill="white" stroke="white" stroke-width="0.5"/>
<path d="M684.317 158.685C682.553 166.119 675.637 172.136 668.099 170.338C666.754 169.966 665.497 169.327 664.405 168.458C663.313 167.59 662.407 166.51 661.742 165.283C661.077 164.056 660.666 162.708 660.535 161.318C660.403 159.929 660.553 158.528 660.975 157.198C662.739 149.763 669.655 143.711 677.193 145.544C678.555 145.889 679.83 146.512 680.938 147.374C682.046 148.237 682.964 149.319 683.633 150.554C684.303 151.788 684.709 153.148 684.827 154.548C684.944 155.947 684.771 157.356 684.317 158.685ZM661.874 157.405C661.467 158.614 661.312 159.894 661.418 161.165C661.525 162.436 661.891 163.672 662.493 164.797C663.096 165.921 663.923 166.91 664.923 167.703C665.922 168.495 667.074 169.074 668.306 169.404C675.222 171.099 681.723 165.462 683.418 158.477C683.825 157.266 683.981 155.984 683.875 154.71C683.769 153.437 683.403 152.198 682.801 151.071C682.198 149.944 681.372 148.952 680.372 148.156C679.372 147.36 678.22 146.777 676.986 146.443C670.001 144.783 663.569 150.42 661.805 157.405H661.874Z" fill="white" stroke="white" stroke-width="0.5"/>
<path d="M704.507 176.217C702.247 177.214 699.732 177.48 697.314 176.978C695.979 176.678 694.721 176.104 693.62 175.292C692.519 174.479 691.6 173.446 690.92 172.259C690.24 171.072 689.815 169.756 689.672 168.396C689.528 167.035 689.669 165.659 690.087 164.356C691.643 156.922 697.971 150.282 705.544 151.907C706.983 152.178 708.347 152.757 709.541 153.604C710.735 154.452 711.731 155.548 712.46 156.818L711.872 157.648C711.227 156.394 710.302 155.305 709.169 154.466C708.035 153.626 706.724 153.059 705.337 152.807C698.421 151.354 692.507 157.579 691.055 164.495C690.662 165.681 690.523 166.937 690.645 168.181C690.767 169.425 691.148 170.63 691.763 171.718C692.379 172.806 693.216 173.753 694.219 174.498C695.223 175.243 696.371 175.77 697.591 176.044C699.997 176.522 702.492 176.219 704.714 175.18L704.507 176.217Z" fill="white" stroke="white" stroke-width="0.5"/>
<path d="M728.892 182.96L730.621 178.326C727.739 180.629 724.102 181.776 720.42 181.542C716.167 180.781 714.68 178.084 715.441 173.761C715.643 172.578 715.967 171.419 716.409 170.303L721.942 155.503L722.875 155.676L717.308 170.718C716.907 171.777 716.584 172.863 716.34 173.969C715.717 177.427 716.893 180.055 720.558 180.677C724.39 180.862 728.157 179.632 731.14 177.219L738.056 158.719H738.955L729.93 182.925L728.892 182.96Z" fill="white" stroke="white" stroke-width="0.5"/>
<path d="M741.338 181.092C743.115 183.289 745.639 184.754 748.427 185.207C749.245 185.389 750.091 185.406 750.916 185.256C751.741 185.107 752.527 184.795 753.229 184.337C753.931 183.88 754.535 183.287 755.005 182.593C755.475 181.899 755.802 181.118 755.966 180.297C756.312 177.807 755.274 176.078 751.263 173.381C747.252 170.683 746.041 168.505 746.456 165.704C746.855 163.96 747.913 162.439 749.408 161.459C750.904 160.479 752.721 160.117 754.479 160.448C757.26 160.884 759.797 162.293 761.637 164.424L761.049 165.185C759.345 163.143 756.964 161.781 754.341 161.347C752.837 161.017 751.263 161.299 749.967 162.129C748.67 162.959 747.756 164.269 747.425 165.773C747.079 168.194 747.978 170.061 751.885 172.689C755.793 175.317 757.349 177.53 756.934 180.47C756.749 181.41 756.378 182.305 755.843 183.1C755.307 183.896 754.618 184.576 753.816 185.101C753.014 185.626 752.114 185.986 751.171 186.158C750.228 186.331 749.26 186.313 748.324 186.106C745.377 185.675 742.693 184.173 740.785 181.887L741.338 181.092Z" fill="white" stroke="white" stroke-width="0.5"/>
<path d="M767.688 174.728C767.409 175.748 767.213 176.789 767.101 177.84C766.837 179.06 766.83 180.322 767.08 181.545C767.33 182.767 767.832 183.925 768.555 184.943C769.277 185.961 770.203 186.818 771.274 187.458C772.346 188.099 773.539 188.509 774.777 188.664C777.189 188.89 779.611 188.345 781.693 187.107C781.693 187.419 781.693 187.799 781.693 188.145C779.535 189.343 777.06 189.85 774.604 189.597C773.246 189.436 771.937 188.992 770.761 188.295C769.584 187.598 768.566 186.663 767.771 185.549C766.977 184.436 766.424 183.169 766.148 181.829C765.872 180.49 765.878 179.108 766.167 177.771C766.962 170.267 772.564 163.005 780.276 163.939C781.255 163.932 782.224 164.134 783.12 164.53C784.015 164.926 784.816 165.508 785.47 166.237C786.124 166.966 786.616 167.826 786.912 168.759C787.209 169.692 787.304 170.678 787.192 171.65C786.954 173.436 786.354 175.154 785.428 176.699L767.688 174.728ZM784.979 175.627C785.66 174.343 786.117 172.951 786.327 171.512C786.464 170.649 786.409 169.766 786.168 168.927C785.927 168.087 785.505 167.31 784.932 166.651C784.358 165.991 783.647 165.466 782.849 165.111C782.05 164.756 781.184 164.58 780.31 164.596C777.554 164.515 774.85 165.365 772.636 167.009C770.421 168.653 768.825 170.994 768.103 173.656L784.979 175.627Z" fill="white" stroke="white" stroke-width="0.5"/>
<path d="M809.528 192.054L810.358 188.596C808.123 190.812 805.103 192.055 801.955 192.054C796.146 191.674 793.414 187.075 793.76 181.161C794.278 173.07 799.638 165.808 806.9 166.292C808.45 166.376 809.964 166.79 811.341 167.506C812.718 168.222 813.928 169.222 814.888 170.441L818.657 155.33L819.66 155.053L810.496 192.123L809.528 192.054ZM814.611 171.548C813.735 170.327 812.604 169.312 811.296 168.572C809.989 167.831 808.536 167.384 807.038 167.26C800.122 166.811 795.316 173.934 794.866 181.092C794.486 186.66 796.975 190.705 802.232 191.017C803.88 190.983 805.503 190.605 806.998 189.909C808.492 189.212 809.825 188.211 810.911 186.971L814.611 171.548Z" fill="white" stroke="white" stroke-width="0.5"/>
<path d="M817.105 198.382C819.491 197.103 821.601 195.339 821.635 193.645C821.665 193.427 821.648 193.205 821.585 192.994C821.522 192.783 821.415 192.587 821.271 192.421C821.128 192.254 820.95 192.12 820.751 192.027C820.551 191.934 820.334 191.884 820.114 191.881C820.163 191.508 820.342 191.164 820.621 190.911C820.9 190.658 821.259 190.511 821.635 190.498C822.569 190.498 823.157 191.432 823.122 192.642C823.122 195.305 820.218 197.587 817.417 199.005L817.105 198.382Z" fill="white" stroke="white" stroke-width="0.5"/>
<path d="M863.961 190.841C861.966 192.35 859.545 193.185 857.045 193.227C855.678 193.246 854.323 192.979 853.065 192.446C851.807 191.912 850.674 191.122 849.737 190.127C848.801 189.132 848.081 187.953 847.625 186.665C847.168 185.377 846.985 184.009 847.085 182.646C846.913 175.038 851.512 167.154 859.258 166.946C860.716 166.895 862.169 167.152 863.522 167.7C864.875 168.248 866.096 169.075 867.107 170.128L866.692 171.096C865.776 170.025 864.626 169.179 863.331 168.622C862.036 168.064 860.631 167.81 859.223 167.88C852.307 168.053 847.846 175.488 848.019 182.542C847.918 183.79 848.078 185.045 848.489 186.228C848.899 187.41 849.551 188.495 850.403 189.412C851.255 190.329 852.289 191.059 853.438 191.555C854.587 192.051 855.827 192.303 857.079 192.294C859.522 192.193 861.87 191.321 863.788 189.804L863.961 190.841Z" fill="white" stroke="white" stroke-width="0.5"/>
<path d="M873.887 192.19L876.964 166.636L877.933 166.221L877.276 172.03C878.97 168.157 881.252 165.909 884.399 165.737C885.619 165.646 886.836 165.962 887.857 166.636L887.65 167.673C886.66 166.928 885.422 166.593 884.192 166.739C880.734 166.947 878.313 170.197 876.688 175.35L874.717 192.156L873.887 192.19Z" fill="white" stroke="white" stroke-width="0.5"/>
<path d="M893.875 177.254C893.805 178.313 893.805 179.376 893.875 180.435C893.861 181.685 894.108 182.925 894.601 184.074C895.093 185.223 895.819 186.257 896.734 187.11C897.648 187.962 898.73 188.615 899.911 189.026C901.092 189.436 902.346 189.596 903.592 189.495C906.025 189.24 908.309 188.196 910.093 186.521C910.093 186.867 910.093 187.248 910.093 187.593C908.241 189.205 905.932 190.196 903.488 190.429C902.125 190.55 900.751 190.384 899.456 189.942C898.16 189.501 896.971 188.793 895.965 187.865C894.959 186.937 894.158 185.809 893.613 184.554C893.069 183.298 892.793 181.942 892.803 180.574C892.077 173.035 896.088 164.805 903.799 164.044C904.755 163.845 905.741 163.851 906.695 164.06C907.648 164.27 908.546 164.679 909.33 165.26C910.114 165.841 910.766 166.582 911.243 167.433C911.72 168.285 912.012 169.227 912.098 170.199C912.222 171.992 911.987 173.79 911.407 175.49L893.875 177.254ZM910.888 174.695C911.287 173.279 911.45 171.807 911.372 170.338C911.309 169.483 911.062 168.652 910.648 167.901C910.234 167.151 909.662 166.499 908.973 165.99C908.283 165.481 907.491 165.127 906.652 164.952C905.813 164.777 904.946 164.786 904.11 164.978C901.394 165.45 898.917 166.828 897.083 168.888C895.25 170.947 894.168 173.567 894.013 176.32L910.888 174.695Z" fill="white" stroke="white" stroke-width="0.5"/>
<path d="M938.621 186.001C938.173 186.145 937.698 186.184 937.232 186.115C936.767 186.046 936.323 185.871 935.936 185.604C935.548 185.337 935.227 184.984 934.997 184.574C934.767 184.163 934.635 183.705 934.61 183.235C933.81 184.454 932.762 185.49 931.534 186.277C930.307 187.063 928.928 187.582 927.486 187.8C926.666 187.985 925.816 187.998 924.991 187.838C924.165 187.678 923.382 187.349 922.69 186.872C921.998 186.394 921.412 185.779 920.97 185.063C920.528 184.348 920.239 183.549 920.121 182.716C919.222 176.008 926.241 172.688 935.128 171.512L935.301 168.815C935.509 164.493 933.365 161.519 929.146 161.899C926.208 162.467 923.523 163.942 921.469 166.118L921.123 165.081C923.266 162.894 926.054 161.451 929.077 160.966C933.918 160.343 936.442 163.801 936.2 168.677L935.578 181.886C935.578 184.342 936.685 185.345 938.794 184.86L938.621 186.001ZM935.163 172.515C925.584 173.829 920.397 177.149 921.089 182.543C921.197 183.268 921.456 183.961 921.848 184.58C922.24 185.198 922.757 185.728 923.366 186.135C923.975 186.542 924.662 186.817 925.383 186.943C926.105 187.069 926.845 187.043 927.555 186.866C929.051 186.59 930.467 185.988 931.704 185.104C932.941 184.219 933.968 183.074 934.713 181.748L935.163 172.515Z" fill="white" stroke="white" stroke-width="0.5"/>
<path d="M957.605 182.095C956.264 183.123 954.701 183.822 953.041 184.136C949.583 184.689 947.75 183.306 947.266 180.297C947.172 179.274 947.172 178.243 947.266 177.22L948.096 159.93L944.223 160.552V159.584L948.096 158.961L948.407 152.737H949.271L948.96 158.961L957.743 157.578V158.512L948.96 159.93L948.165 177.22C948.072 178.162 948.072 179.112 948.165 180.055C948.58 182.683 950.032 183.513 952.937 183.202C954.532 182.849 956.03 182.153 957.328 181.162L957.605 182.095Z" fill="white" stroke="white" stroke-width="0.5"/>
<path d="M965.656 148.622C965.605 148.365 965.655 148.099 965.798 147.879C965.94 147.66 966.162 147.504 966.417 147.446C966.678 147.421 966.939 147.496 967.147 147.655C967.355 147.815 967.495 148.047 967.539 148.305C967.582 148.564 967.527 148.829 967.383 149.048C967.239 149.267 967.018 149.424 966.763 149.486C966.502 149.516 966.24 149.442 966.033 149.28C965.826 149.118 965.691 148.882 965.656 148.622ZM965.899 181.611L966.071 155.849L967.005 155.33L966.798 181.438L965.899 181.611Z" fill="white" stroke="white" stroke-width="0.5"/>
<path d="M983.608 178.462L974.133 154.256H975.101L983.884 176.63L992.357 150.971L993.359 150.764L984.334 178.428L983.608 178.462Z" fill="white" stroke="white" stroke-width="0.5"/>
<path d="M999.856 161.382C999.907 162.429 1000.05 163.47 1000.27 164.494C1000.4 165.737 1000.78 166.94 1001.4 168.028C1002.01 169.115 1002.85 170.062 1003.85 170.81C1004.85 171.557 1006 172.089 1007.21 172.371C1008.43 172.653 1009.69 172.679 1010.92 172.447C1013.31 171.913 1015.46 170.614 1017.04 168.747C1017.04 169.093 1017.25 169.439 1017.32 169.785C1015.63 171.545 1013.45 172.751 1011.06 173.243C1009.72 173.51 1008.34 173.495 1007.01 173.198C1005.67 172.901 1004.41 172.329 1003.31 171.518C1002.21 170.708 1001.3 169.677 1000.62 168.491C999.938 167.305 999.514 165.991 999.372 164.632C997.781 157.197 1000.86 148.587 1008.47 146.962C1009.39 146.665 1010.37 146.566 1011.33 146.672C1012.3 146.777 1013.23 147.085 1014.07 147.574C1014.9 148.063 1015.63 148.723 1016.2 149.511C1016.76 150.3 1017.16 151.198 1017.35 152.149C1017.75 153.914 1017.75 155.744 1017.35 157.509L999.856 161.382ZM1016.49 156.886C1016.73 155.456 1016.73 153.994 1016.49 152.564C1016.34 151.717 1016 150.913 1015.51 150.209C1015.02 149.504 1014.38 148.916 1013.63 148.485C1012.89 148.054 1012.06 147.79 1011.2 147.712C1010.35 147.634 1009.48 147.744 1008.67 148.034C1006.03 148.804 1003.73 150.447 1002.14 152.695C1000.55 154.944 999.769 157.665 999.925 160.414L1016.49 156.886Z" fill="white" stroke="white" stroke-width="0.5"/>
<path d="M1058.27 162.416C1057.84 162.608 1057.37 162.697 1056.9 162.677C1056.42 162.657 1055.96 162.528 1055.55 162.3C1055.13 162.073 1054.77 161.753 1054.5 161.365C1054.23 160.978 1054.05 160.533 1053.98 160.065C1053.31 161.359 1052.37 162.496 1051.22 163.401C1050.08 164.307 1048.76 164.961 1047.34 165.321C1046.54 165.584 1045.69 165.678 1044.85 165.599C1044.01 165.519 1043.19 165.267 1042.45 164.858C1041.71 164.449 1041.07 163.893 1040.55 163.223C1040.04 162.553 1039.67 161.784 1039.46 160.964C1037.94 154.394 1044.58 150.383 1053.29 148.342V145.645C1053.08 141.288 1050.66 138.729 1046.38 139.559C1043.5 140.388 1040.96 142.106 1039.11 144.469L1038.7 143.501C1040.61 141.114 1043.24 139.405 1046.2 138.625C1050.98 137.484 1053.81 140.7 1054.05 145.541L1054.74 158.751C1054.74 161.206 1056.2 162.209 1058.2 161.379L1058.27 162.416ZM1053.36 149.38C1043.92 151.628 1039.11 155.431 1040.32 160.722C1040.5 161.439 1040.83 162.11 1041.28 162.692C1041.74 163.274 1042.31 163.753 1042.96 164.099C1043.62 164.445 1044.33 164.649 1045.07 164.699C1045.81 164.749 1046.55 164.642 1047.24 164.387C1048.7 163.962 1050.05 163.221 1051.19 162.218C1052.33 161.214 1053.24 159.971 1053.85 158.578L1053.36 149.38Z" fill="white" stroke="white" stroke-width="0.5"/>
<path d="M1081.72 156.643L1080.85 140.805C1080.8 139.642 1080.65 138.486 1080.4 137.347C1079.57 133.889 1077.46 132.022 1073.9 132.887C1070.3 134.282 1067.36 136.971 1065.64 140.425L1066.74 160.17L1065.81 160.378L1064.39 134.65L1065.29 134.097L1065.57 139.042C1067.3 135.815 1070.17 133.35 1073.62 132.126C1077.81 131.089 1080.33 133.06 1081.33 137.244C1081.58 138.382 1081.73 139.539 1081.78 140.702L1082.61 156.505L1081.72 156.643Z" fill="white" stroke="white" stroke-width="0.5"/>
<path d="M1109.07 150.385L1108.9 146.927C1107.42 149.647 1104.94 151.683 1101.98 152.598C1096.28 153.877 1092.37 150.212 1091.09 144.437C1089.29 136.553 1092.4 128.115 1099.53 126.49C1101.04 126.144 1102.61 126.122 1104.13 126.426C1105.65 126.73 1107.08 127.353 1108.34 128.253L1107.76 112.692L1108.62 112.174L1110.18 150.212L1109.07 150.385ZM1108.24 129.222C1107.04 128.28 1105.64 127.615 1104.16 127.274C1102.67 126.933 1101.12 126.925 1099.63 127.251C1092.92 128.738 1090.22 136.933 1091.82 144.022C1093.03 149.486 1096.52 152.667 1101.67 151.491C1103.24 150.988 1104.7 150.166 1105.94 149.077C1107.18 147.989 1108.19 146.657 1108.9 145.163L1108.24 129.222Z" fill="white" stroke="white" stroke-width="0.5"/>
<path d="M1134.42 158.098L1134.04 119.23L1134.93 118.711V122.757C1136.56 120.125 1139.14 118.219 1142.13 117.431C1147.87 116.325 1151.67 120.094 1152.78 125.903C1154.3 133.822 1150.94 142.225 1143.79 143.608C1142.28 143.911 1140.73 143.889 1139.23 143.543C1137.73 143.198 1136.33 142.536 1135.11 141.603V157.925L1134.42 158.098ZM1135.14 140.462C1136.29 141.436 1137.65 142.14 1139.11 142.523C1140.57 142.906 1142.1 142.958 1143.58 142.675C1150.32 141.361 1153.26 133.269 1151.91 126.146C1150.84 120.647 1147.45 117.362 1142.3 118.365C1140.72 118.816 1139.26 119.589 1137.99 120.637C1136.73 121.685 1135.7 122.984 1134.97 124.451L1135.14 140.462Z" fill="white" stroke="white" stroke-width="0.5"/>
<path d="M1162.11 139.594L1162.42 113.832L1163.35 113.348V119.192C1164.63 115.181 1166.81 112.691 1169.75 112.276C1170.93 112.057 1172.15 112.24 1173.21 112.795V113.867C1172.17 113.249 1170.94 113.039 1169.75 113.279C1166.29 113.832 1164.25 117.325 1163.22 122.616V139.56L1162.11 139.594Z" fill="white" stroke="white" stroke-width="0.5"/>
<path d="M1201.74 118.846C1202.81 126.42 1198.59 134.546 1190.92 135.652C1189.52 135.805 1188.12 135.674 1186.78 135.269C1185.44 134.864 1184.2 134.192 1183.12 133.294C1182.05 132.396 1181.17 131.29 1180.54 130.044C1179.9 128.797 1179.53 127.435 1179.43 126.039C1178.36 118.466 1182.58 110.34 1190.26 109.233C1191.65 109.081 1193.06 109.211 1194.39 109.617C1195.73 110.022 1196.98 110.694 1198.05 111.592C1199.12 112.49 1200 113.595 1200.63 114.842C1201.27 116.089 1201.64 117.451 1201.74 118.846ZM1180.51 125.762C1180.57 127.035 1180.9 128.28 1181.47 129.422C1182.03 130.565 1182.82 131.579 1183.8 132.405C1184.77 133.23 1185.9 133.849 1187.11 134.223C1188.33 134.597 1189.61 134.719 1190.88 134.58C1198 133.543 1201.91 125.97 1200.91 118.846C1200.84 117.574 1200.51 116.329 1199.95 115.186C1199.38 114.044 1198.59 113.03 1197.62 112.204C1196.65 111.379 1195.52 110.76 1194.3 110.386C1193.08 110.012 1191.8 109.89 1190.53 110.029C1183.27 111.066 1179.37 118.846 1180.51 125.762Z" fill="white" stroke="white" stroke-width="0.5"/>
<path d="M1227.19 130.778L1227.47 127.32C1225.62 129.871 1222.83 131.587 1219.72 132.092C1213.91 132.645 1210.49 128.634 1209.9 122.651C1209.1 114.594 1213.36 106.572 1220.52 105.88C1222.02 105.705 1223.54 105.845 1224.99 106.291C1226.44 106.738 1227.78 107.481 1228.92 108.474L1230.2 92.9471L1231.17 92.4976L1227.99 130.536L1227.19 130.778ZM1228.95 109.684C1227.88 108.603 1226.57 107.773 1225.14 107.253C1223.71 106.733 1222.17 106.536 1220.65 106.675C1213.74 107.332 1210.11 115.148 1210.83 122.375C1211.35 127.908 1214.29 131.504 1219.69 131.02C1221.3 130.709 1222.84 130.07 1224.2 129.142C1225.57 128.214 1226.72 127.018 1227.6 125.625L1228.95 109.684Z" fill="white" stroke="white" stroke-width="0.5"/>
<path d="M1254.44 129.396L1255.09 124.485C1252.79 127.366 1249.5 129.289 1245.86 129.88C1241.54 130.087 1239.46 127.667 1239.26 123.344C1239.24 122.188 1239.31 121.032 1239.46 119.886L1241.64 104.221H1242.58L1240.4 119.955C1240.25 121.102 1240.18 122.257 1240.19 123.413C1240.19 127.079 1242.09 129.223 1245.76 129.05C1249.56 128.353 1252.97 126.256 1255.3 123.171L1257.96 103.633H1258.9L1255.44 129.188L1254.44 129.396Z" fill="white" stroke="white" stroke-width="0.5"/>
<path d="M1282.59 127.214C1280.56 128.627 1278.14 129.355 1275.67 129.289C1274.3 129.256 1272.96 128.937 1271.72 128.352C1270.49 127.767 1269.39 126.93 1268.49 125.894C1267.6 124.858 1266.93 123.646 1266.54 122.337C1266.14 121.028 1266.03 119.65 1266.2 118.293C1266.2 110.72 1271.25 103.009 1278.99 103.147C1280.45 103.134 1281.89 103.436 1283.22 104.033C1284.56 104.63 1285.74 105.507 1286.7 106.605L1286.25 107.538C1285.37 106.444 1284.26 105.565 1282.99 104.966C1281.72 104.367 1280.33 104.064 1278.92 104.08C1272.01 104.08 1267.23 110.997 1267.13 118.258C1266.98 119.497 1267.08 120.754 1267.44 121.95C1267.8 123.146 1268.4 124.254 1269.21 125.204C1270.02 126.154 1271.02 126.925 1272.14 127.467C1273.27 128.01 1274.49 128.312 1275.74 128.356C1278.22 128.398 1280.65 127.634 1282.66 126.177L1282.59 127.214Z" fill="white" stroke="white" stroke-width="0.5"/>
<path d="M1302.4 129.221C1300.85 129.923 1299.16 130.243 1297.46 130.155C1294 129.878 1292.51 128.114 1292.76 125.071C1292.89 124.051 1293.11 123.045 1293.41 122.063L1298.22 105.603L1294.35 105.291L1294.62 104.358L1298.5 104.669L1300.29 98.6865H1301.16L1299.4 104.669L1308.25 105.36L1307.97 106.294L1299.08 105.568L1294.28 122.305C1293.99 123.217 1293.79 124.155 1293.69 125.106C1293.48 127.734 1294.62 129.048 1297.6 129.29C1299.21 129.329 1300.82 129.01 1302.3 128.356L1302.4 129.221Z" fill="white" stroke="white" stroke-width="0.5"/>
<path d="M1310.15 131.054L1317.89 106.502L1318.93 106.295L1311.08 131.158L1310.15 131.054ZM1319.62 99.448C1319.63 99.3183 1319.67 99.1919 1319.73 99.0772C1319.79 98.9625 1319.88 98.8619 1319.98 98.7817C1320.08 98.7015 1320.2 98.6435 1320.33 98.6116C1320.45 98.5797 1320.58 98.5744 1320.71 98.5962C1320.84 98.618 1320.96 98.6663 1321.07 98.738C1321.18 98.8098 1321.27 98.9033 1321.34 99.0128C1321.41 99.1223 1321.46 99.2454 1321.48 99.3739C1321.5 99.5025 1321.49 99.6336 1321.46 99.7591C1321.45 99.8851 1321.41 100.008 1321.36 100.12C1321.3 100.233 1321.22 100.333 1321.12 100.413C1321.03 100.494 1320.91 100.554 1320.79 100.59C1320.67 100.627 1320.54 100.638 1320.42 100.624C1320.29 100.599 1320.17 100.549 1320.06 100.476C1319.95 100.404 1319.85 100.31 1319.78 100.201C1319.7 100.091 1319.65 99.9689 1319.63 99.8398C1319.6 99.7106 1319.6 99.5775 1319.62 99.448Z" fill="white" stroke="white" stroke-width="0.5"/>
<path d="M1327.68 133.579L1327.4 107.713L1328.37 107.886L1328.61 132.092L1345.63 111.102H1346.66L1328.41 133.648L1327.68 133.579Z" fill="white" stroke="white" stroke-width="0.5"/>
<path d="M1349.63 123.827C1349.21 124.798 1348.88 125.805 1348.63 126.835C1348.21 128.011 1348.04 129.262 1348.13 130.507C1348.22 131.753 1348.57 132.965 1349.16 134.068C1349.74 135.171 1350.55 136.14 1351.53 136.913C1352.51 137.686 1353.65 138.246 1354.85 138.558C1357.24 139.115 1359.74 138.872 1361.98 137.866C1361.93 138.216 1361.86 138.562 1361.77 138.903C1359.49 139.837 1356.97 140.031 1354.58 139.457C1353.25 139.129 1352 138.527 1350.92 137.689C1349.83 136.851 1348.94 135.796 1348.29 134.591C1347.64 133.386 1347.24 132.058 1347.14 130.693C1347.03 129.327 1347.21 127.954 1347.66 126.662C1349.46 119.297 1355.93 112.83 1363.46 114.628C1364.43 114.756 1365.35 115.085 1366.18 115.594C1367.01 116.104 1367.72 116.782 1368.27 117.584C1368.82 118.387 1369.19 119.296 1369.36 120.253C1369.54 121.209 1369.51 122.191 1369.27 123.135C1368.84 124.876 1368.04 126.504 1366.92 127.907L1349.63 123.827ZM1366.54 126.904C1367.39 125.708 1368.02 124.374 1368.41 122.962C1368.62 122.134 1368.66 121.269 1368.51 120.427C1368.36 119.585 1368.03 118.784 1367.54 118.079C1367.06 117.375 1366.43 116.782 1365.69 116.342C1364.96 115.902 1364.14 115.624 1363.29 115.527C1360.57 115.094 1357.78 115.593 1355.38 116.942C1352.97 118.292 1351.1 120.413 1350.05 122.962L1366.54 126.904Z" fill="white" stroke="white" stroke-width="0.5"/>
</svg>
