<svg width="1370" height="199" viewBox="0 0 1370 199" fill="none" xmlns="http://www.w3.org/2000/svg">
<path d="M19.2006 38.7611L12.7341 23.4767L3.67409 24.2028L1.46097 39.3835H0.527344L5.61062 4.59593L13.4603 4.31933C20.0305 4.07727 23.8343 6.94741 24.0072 12.3073C24.0642 15.1408 23.011 17.8843 21.0727 19.9518C19.1344 22.0194 16.4645 23.2471 13.6332 23.3729L20.2726 38.6919L19.2006 38.7611ZM12.492 22.6122C13.8621 22.6405 15.2238 22.3914 16.4952 21.8801C17.7666 21.3687 18.9215 20.6057 19.8905 19.6367C20.8595 18.6677 21.6226 17.5128 22.134 16.2414C22.6453 14.97 22.8943 13.6082 22.8661 12.2381C22.6932 7.36231 19.4081 4.9417 13.2874 5.32208L6.37139 5.56417L3.77788 23.2693L12.492 22.6122Z" fill="#E07207"/>
<path d="M30.3033 24.9281C30.1664 25.9714 30.0971 27.0224 30.0958 28.0747C29.9905 29.3195 30.1447 30.5726 30.5487 31.7546C30.9527 32.9366 31.5977 34.0219 32.4428 34.9418C33.2879 35.8617 34.3147 36.5961 35.4584 37.0986C36.602 37.6011 37.8374 37.8606 39.0866 37.861C41.5293 37.789 43.883 36.9277 45.7951 35.4059V36.4779C43.7839 37.9493 41.3704 38.7698 38.8791 38.8293C37.5123 38.8386 36.1584 38.5633 34.9036 38.0212C33.6488 37.4791 32.5206 36.682 31.5905 35.6803C30.6604 34.6787 29.9488 33.4943 29.501 32.2029C29.0531 30.9114 28.8789 29.541 28.9892 28.1786C28.9892 20.571 33.4846 12.6867 41.2305 12.5484C42.2086 12.4252 43.2017 12.5124 44.1433 12.8043C45.0849 13.0963 45.9532 13.5861 46.69 14.241C47.4268 14.8959 48.0151 15.7009 48.4154 16.6017C48.8157 17.5026 49.0188 18.4786 49.0111 19.4643C49.0202 21.2604 48.6551 23.0388 47.9391 24.686L30.3033 24.9281ZM47.5933 23.6486C48.1132 22.2905 48.3827 20.8495 48.3886 19.3953C48.4012 18.5267 48.2223 17.6658 47.8646 16.8742C47.5068 16.0826 46.979 15.3796 46.3188 14.8151C45.6585 14.2506 44.882 13.8384 44.0444 13.608C43.2068 13.3776 42.3287 13.3346 41.4726 13.482C38.751 13.7333 36.1931 14.8932 34.2109 16.775C32.2287 18.6568 30.9375 21.1511 30.5453 23.8561L47.5933 23.6486Z" fill="#E07207"/>
<path d="M72.8006 38.0357L73.423 34.5777C71.3354 36.93 68.4012 38.3599 65.2621 38.5545C59.4181 38.5545 56.4096 34.1628 56.375 28.1805C56.375 20.0887 61.2508 12.4811 68.5472 12.4811C70.0978 12.4698 71.6331 12.7875 73.0518 13.4134C74.4705 14.0393 75.7403 14.9592 76.7773 16.1121L79.5783 0.792982L80.5465 0.447266L73.6305 38.0357H72.8006ZM76.5698 17.2877C75.6048 16.1084 74.3919 15.1563 73.0173 14.4989C71.6426 13.8415 70.1401 13.495 68.6164 13.4839C61.7004 13.4839 57.3087 20.9187 57.3432 28.1805C57.3432 33.7825 60.0405 37.6554 65.3312 37.6208C66.9736 37.4764 68.5683 36.9932 70.0146 36.2016C71.4609 35.41 72.7274 34.3274 73.7342 33.0218L76.5698 17.2877Z" fill="#E07207"/>
<path d="M100.361 38.7613L101.33 33.8856C98.8425 36.6249 95.4313 38.3488 91.7508 38.7267C87.4629 38.7267 85.5264 36.1332 85.5955 31.8107C85.6171 30.647 85.7562 29.4884 86.0105 28.3527L89.1227 12.8608H90.0564L86.9442 28.3873C86.6988 29.5246 86.5599 30.6822 86.5292 31.8453C86.5292 35.3033 88.0507 37.7238 91.7162 37.793C95.546 37.3133 99.0658 35.4427 101.606 32.5369L105.444 13.172H106.378L101.33 38.45L100.361 38.7613Z" fill="#E07207"/>
<path d="M128.966 37.3775C126.919 38.7324 124.503 39.4209 122.049 39.3486C120.685 39.2848 119.349 38.9371 118.127 38.3277C116.904 37.7184 115.822 36.8607 114.95 35.8096C114.078 34.7584 113.435 33.5369 113.061 32.223C112.688 30.9092 112.593 29.532 112.782 28.1793C113.024 20.6063 118.107 12.964 125.853 13.2407C127.3 13.2402 128.73 13.5484 130.048 14.1448C131.365 14.7411 132.541 15.6118 133.495 16.6987L133.046 17.6324C132.192 16.5139 131.094 15.6051 129.836 14.9758C128.577 14.3465 127.191 14.0133 125.784 14.0015C118.695 13.7594 113.958 20.9176 113.716 27.8336C113.526 29.0787 113.598 30.3496 113.929 31.5649C114.26 32.7802 114.841 33.9129 115.636 34.89C116.431 35.8671 117.421 36.6671 118.543 37.2385C119.666 37.8098 120.896 38.14 122.153 38.2076C124.626 38.2678 127.051 37.5278 129.069 36.0981L128.966 37.3775Z" fill="#E07207"/>
<path d="M140.027 25.9645C139.821 27.0033 139.682 28.0546 139.612 29.1114C139.428 30.3394 139.498 31.5921 139.818 32.7919C140.139 33.9916 140.702 35.1128 141.474 36.0857C142.246 37.0585 143.209 37.8622 144.305 38.447C145.4 39.0318 146.604 39.3854 147.842 39.4854C150.3 39.596 152.727 38.9041 154.758 37.5143C154.758 37.8601 154.758 38.2405 154.758 38.5863C152.687 39.8743 150.279 40.5125 147.842 40.4189C146.477 40.3254 145.147 39.949 143.935 39.3132C142.724 38.6774 141.658 37.7964 140.806 36.7262C139.954 35.6561 139.334 34.4202 138.985 33.0973C138.637 31.7743 138.568 30.3933 138.782 29.0422C139.197 21.4691 144.384 13.9653 152.13 14.3802C153.103 14.3297 154.075 14.4853 154.984 14.8367C155.892 15.1882 156.717 15.7276 157.402 16.4197C158.088 17.1118 158.619 17.9409 158.962 18.8528C159.305 19.7647 159.451 20.7388 159.392 21.7112C159.275 23.5006 158.78 25.2448 157.939 26.829L140.027 25.9645ZM157.317 25.9645C157.933 24.647 158.307 23.2301 158.423 21.7804C158.496 20.9249 158.382 20.0635 158.089 19.2566C157.795 18.4496 157.33 17.7163 156.724 17.1075C156.119 16.4987 155.388 16.029 154.583 15.7312C153.777 15.4334 152.917 15.3146 152.061 15.383C149.306 15.4406 146.651 16.4289 144.529 18.1869C142.407 19.9449 140.942 22.3691 140.373 25.0654L157.317 25.9645Z" fill="#E07207"/>
<path d="M178.03 38.4855C179.936 40.573 182.548 41.8791 185.361 42.151C186.187 42.2882 187.032 42.2584 187.846 42.0634C188.66 41.8683 189.426 41.512 190.1 41.0154C190.774 40.5189 191.342 39.8924 191.769 39.1727C192.196 38.453 192.475 37.655 192.589 36.8257C192.796 34.3013 191.655 32.6416 187.505 30.221C183.356 27.8004 182.007 25.6564 182.249 22.8208C182.372 21.939 182.668 21.0903 183.122 20.3244C183.576 19.5584 184.178 18.8905 184.892 18.3594C185.607 17.8283 186.42 17.4449 187.284 17.2313C188.148 17.0176 189.046 16.978 189.926 17.115C192.721 17.3668 195.34 18.5904 197.326 20.573L196.773 21.3683C194.974 19.4007 192.51 18.1689 189.857 17.9103C189.103 17.7868 188.332 17.8133 187.588 17.9881C186.845 18.163 186.143 18.4828 185.523 18.9293C184.903 19.3757 184.377 19.9402 183.976 20.5901C183.574 21.24 183.305 21.9628 183.183 22.7169C182.975 25.1376 183.978 26.9704 188.059 29.2873C192.139 31.6041 193.764 33.7826 193.522 36.7565C193.396 37.7086 193.08 38.6258 192.593 39.4538C192.106 40.2819 191.459 41.004 190.689 41.5777C189.918 42.1514 189.041 42.5651 188.108 42.7943C187.175 43.0234 186.206 43.0633 185.258 42.9118C182.294 42.6451 179.535 41.2898 177.512 39.1079L178.03 38.4855Z" fill="#E07207"/>
<path d="M212.265 44.2923C210.704 44.9506 209.008 45.2236 207.32 45.0878C203.862 44.742 202.409 42.9092 202.721 39.9008C202.865 38.8768 203.108 37.8693 203.447 36.8923L208.634 20.5358L204.761 20.1208L205.072 19.2217L208.945 19.6366L210.882 13.689H211.746L209.844 19.6022L218.697 20.5358L218.386 21.4349L209.533 20.5358L204.311 36.9959C203.995 37.892 203.774 38.8194 203.654 39.7623C203.378 42.425 204.519 43.7738 207.458 44.0504C209.079 44.1233 210.696 43.8399 212.196 43.2203L212.265 44.2923Z" fill="#E07207"/>
<path d="M220.184 46.022L227.826 21.4702L228.863 21.2627L227.134 26.83C227.878 25.3135 229.044 24.0437 230.491 23.1728C231.939 22.3019 233.607 21.8668 235.295 21.9197C236.52 22.0437 237.666 22.5803 238.546 23.4413L238.165 24.444C237.361 23.5521 236.249 22.9964 235.053 22.8879C231.595 22.4729 228.656 25.2393 226.131 30.0114L221.117 46.1604L220.184 46.022Z" fill="#E07207"/>
<path d="M242.35 35.0249C242.05 36.0457 241.819 37.0855 241.659 38.1372C241.355 39.3461 241.307 40.605 241.516 41.8337C241.725 43.0624 242.187 44.2343 242.873 45.2748C243.559 46.3154 244.454 47.2018 245.501 47.8781C246.548 48.5543 247.724 49.0055 248.955 49.2029C251.341 49.4999 253.76 49.0403 255.871 47.8888C255.852 48.2344 255.852 48.5806 255.871 48.9262C253.681 50.0629 251.19 50.486 248.748 50.1364C247.394 49.9318 246.098 49.4464 244.943 48.7113C243.788 47.9763 242.799 47.0078 242.04 45.8681C241.282 44.7284 240.77 43.4428 240.537 42.0935C240.305 40.7443 240.357 39.3612 240.69 38.0334C241.762 30.5295 247.606 23.4753 255.283 24.5819C256.256 24.6153 257.211 24.8536 258.085 25.2813C258.959 25.709 259.733 26.3165 260.357 27.0639C260.98 27.8114 261.439 28.682 261.703 29.6188C261.967 30.5557 262.03 31.5377 261.888 32.5006C261.611 34.2756 260.963 35.9723 259.986 37.4802L242.35 35.0249ZM259.64 36.5118C260.375 35.2509 260.878 33.8691 261.127 32.4314C261.273 31.584 261.232 30.715 261.008 29.885C260.783 29.0549 260.381 28.2838 259.828 27.6253C259.274 26.9669 258.584 26.437 257.806 26.0726C257.027 25.7082 256.178 25.518 255.318 25.5154C252.572 25.3389 249.847 26.0927 247.582 27.6549C245.317 29.2171 243.645 31.4965 242.834 34.1258L259.64 36.5118Z" fill="#E07207"/>
<path d="M264.996 48.546C266.704 50.7613 269.164 52.2742 271.912 52.7993C272.725 53.0039 273.571 53.043 274.4 52.9141C275.229 52.7852 276.023 52.4911 276.736 52.0492C277.449 51.6072 278.066 51.0264 278.55 50.3415C279.034 49.6565 279.375 48.8813 279.554 48.0618C279.969 45.572 278.931 43.8085 275.024 41.1458C271.116 38.4831 269.871 36.1663 270.356 33.3653C270.791 31.6323 271.88 30.1351 273.395 29.1875C274.91 28.2399 276.733 27.9153 278.482 28.2819C281.2 28.8175 283.646 30.2852 285.398 32.4315L284.81 33.1578C283.14 31.0915 280.784 29.6928 278.171 29.2156C276.69 28.8717 275.134 29.1256 273.839 29.9218C272.544 30.7181 271.616 31.9924 271.255 33.4689C270.84 35.8895 271.704 37.7568 275.577 40.3849C279.45 43.013 280.937 45.33 280.453 48.2693C280.245 49.2024 279.854 50.0848 279.302 50.8649C278.749 51.645 278.047 52.3071 277.235 52.8126C276.424 53.318 275.52 53.6567 274.576 53.8088C273.632 53.9609 272.668 53.9234 271.739 53.6984C268.802 53.203 266.146 51.6539 264.27 49.3413L264.996 48.546Z" fill="#E07207"/>
<path d="M287.369 52.3175C289.051 54.587 291.515 56.1519 294.285 56.7092C295.091 56.9324 295.933 56.9916 296.763 56.8836C297.593 56.7755 298.392 56.5024 299.114 56.0801C299.836 55.6577 300.466 55.0949 300.967 54.4249C301.468 53.7549 301.83 52.9913 302.03 52.1792C302.515 49.6549 301.512 47.8913 297.639 45.2632C293.766 42.6351 292.625 40.1453 293.143 37.3788C293.615 35.6485 294.741 34.1692 296.283 33.253C297.825 32.3369 299.663 32.0556 301.408 32.4685C304.149 33.0319 306.601 34.5518 308.324 36.7564L307.702 37.4827C306.099 35.3752 303.791 33.9147 301.201 33.3676C299.706 32.9657 298.112 33.1732 296.77 33.9447C295.428 34.7162 294.447 35.9886 294.042 37.4827C293.593 39.8687 294.423 41.7706 298.227 44.3987C302.03 47.0268 303.483 49.4474 302.93 52.3867C302.704 53.3185 302.294 54.1956 301.724 54.9659C301.153 55.7362 300.434 56.3839 299.608 56.8709C298.783 57.3579 297.868 57.6742 296.918 57.8008C295.967 57.9275 295.001 57.8621 294.077 57.6083C291.153 57.0677 288.538 55.4515 286.746 53.0784L287.369 52.3175Z" fill="#E07207"/>
<path d="M348.027 69.2619C347.266 65.4581 346.332 62.3458 345.502 59.5102C341.076 62.9683 336.131 66.4264 331.048 65.2161C329.981 65.0305 328.964 64.6262 328.061 64.0286C327.158 63.4311 326.388 62.6531 325.8 61.7437C325.212 60.8343 324.819 59.8133 324.645 58.7445C324.471 57.6758 324.52 56.5824 324.789 55.5335C326.241 49.2399 332.95 47.3727 338.067 47.0269C336.896 45.9703 336.002 44.6417 335.466 43.1581C334.929 41.6746 334.765 40.0817 334.99 38.5201C335.585 36.2892 337.028 34.3789 339.011 33.1967C340.994 32.0145 343.361 31.654 345.606 32.1919C346.542 32.3577 347.433 32.7147 348.225 33.2404C349.017 33.7662 349.692 34.4496 350.208 35.2478C350.724 36.046 351.07 36.9419 351.224 37.8797C351.378 38.8176 351.337 39.7773 351.104 40.6987C349.963 45.4361 344.741 47.6147 340.039 47.8914C342.65 50.8707 344.669 54.3214 345.986 58.0579L356.706 48.8595L357.813 49.1362L346.228 58.8878C347.314 62.2946 348.215 65.7577 348.926 69.2619H348.027ZM338.794 47.8222C332.708 47.8222 326.933 50.4503 325.688 55.7065C325.439 56.6473 325.391 57.6298 325.548 58.5902C325.705 59.5506 326.063 60.4671 326.598 61.2798C327.133 62.0925 327.834 62.783 328.654 63.3064C329.475 63.8297 330.396 64.1742 331.359 64.3169C335.993 65.4235 341.041 62.0692 345.191 58.6804C343.907 54.624 341.719 50.9115 338.794 47.8222ZM350.171 40.5604C350.373 39.7575 350.409 38.9215 350.276 38.1041C350.143 37.2867 349.844 36.5053 349.396 35.8084C348.949 35.1115 348.363 34.5138 347.676 34.0524C346.988 33.5909 346.213 33.2754 345.398 33.1256C343.397 32.6564 341.292 32.9767 339.521 34.0201C337.749 35.0635 336.449 36.7496 335.889 38.7276C335.743 40.2984 335.981 41.8812 336.584 43.3392C337.186 44.7972 338.135 46.0865 339.347 47.0959C343.946 46.9922 349.099 45.0212 350.171 40.5604Z" fill="#E07207"/>
<path d="M387.999 79.5644C387.532 79.5172 387.081 79.3648 386.681 79.1186C386.281 78.8725 385.942 78.539 385.689 78.1431C385.436 77.7472 385.276 77.2991 385.221 76.8326C385.166 76.3661 385.217 75.8932 385.371 75.4493C384.152 76.2565 382.777 76.7969 381.335 77.0352C379.893 77.2736 378.416 77.2046 377.003 76.8326C376.174 76.6759 375.387 76.3496 374.691 75.8744C373.994 75.3992 373.403 74.7852 372.955 74.0709C372.507 73.3566 372.211 72.5576 372.087 71.7237C371.962 70.8898 372.011 70.0391 372.231 69.225C374.063 62.7239 381.809 62.3089 390.454 64.8678L391.665 62.4472C393.567 58.5742 392.771 55.0125 388.691 53.8714C385.76 53.2144 382.697 53.505 379.942 54.7013V53.6293C382.77 52.4677 385.896 52.2375 388.864 52.9723C393.601 54.2863 394.535 58.4705 392.322 62.8621L386.547 74.7233C385.509 76.971 386.236 78.1812 388.345 78.7345L387.999 79.5644ZM390.005 65.7323C380.668 63.1388 374.582 64.1416 373.13 69.3632C372.941 70.071 372.903 70.8105 373.018 71.534C373.132 72.2574 373.396 72.949 373.793 73.5644C374.191 74.1797 374.712 74.7052 375.324 75.1072C375.936 75.5093 376.626 75.7789 377.348 75.8989C378.83 76.2285 380.366 76.229 381.848 75.9004C383.329 75.5718 384.721 74.9221 385.924 73.997L390.005 65.7323Z" fill="#E07207"/>
<path d="M410.996 86.3424L418.292 72.2682C418.84 71.2765 419.292 70.2342 419.641 69.1559C420.713 65.6979 419.641 63.0698 416.183 61.9978C412.379 61.3878 408.484 62.2137 405.255 64.3149L396.161 81.847L395.262 81.5703L407.123 58.7129H408.16L405.912 62.9662C409.06 61.0194 412.821 60.3166 416.459 60.9951C417.337 61.1743 418.161 61.5539 418.867 62.1042C419.573 62.6545 420.143 63.3607 420.531 64.1675C420.92 64.9744 421.116 65.86 421.106 66.7553C421.095 67.6507 420.878 68.5315 420.471 69.329C420.11 70.4251 419.659 71.4892 419.122 72.5103L411.826 86.5152L410.996 86.3424Z" fill="#E07207"/>
<path d="M435.68 94.2944L433.882 80.7391L420.257 89.2456L419.047 88.8307L433.709 79.7361L432.014 66.4229L433.052 66.7686L434.573 79.2866L447.161 71.4024L448.336 71.7827L434.746 80.2549L436.717 94.5711L435.68 94.2944Z" fill="#E07207"/>
<path d="M444.332 97.2325L456.885 74.7554H457.922L445.197 97.5438L444.332 97.2325ZM459.997 68.2199C460.077 67.9766 460.246 67.7729 460.471 67.6507C460.696 67.5285 460.96 67.4972 461.207 67.5629C461.33 67.6123 461.442 67.6854 461.537 67.7784C461.631 67.8714 461.707 67.9823 461.758 68.1045C461.809 68.2267 461.836 68.3577 461.837 68.4903C461.837 68.6229 461.811 68.7544 461.76 68.877C461.681 69.1191 461.51 69.3202 461.283 69.4367C461.057 69.5532 460.793 69.5757 460.55 69.4994C460.425 69.458 460.31 69.3905 460.213 69.3016C460.116 69.2127 460.039 69.1044 459.987 68.9836C459.935 68.8627 459.908 68.7323 459.91 68.6007C459.912 68.4691 459.941 68.3393 459.997 68.2199Z" fill="#E07207"/>
<path d="M461.624 88.7623C461.13 89.7044 460.691 90.6742 460.31 91.6669C459.775 92.7947 459.481 94.0212 459.445 95.2686C459.409 96.516 459.632 97.7574 460.1 98.9143C460.568 100.071 461.27 101.118 462.164 101.99C463.057 102.861 464.121 103.538 465.289 103.977C467.614 104.74 470.122 104.74 472.447 103.977C472.447 104.289 472.274 104.669 472.171 104.98C469.8 105.677 467.27 105.604 464.943 104.773C463.658 104.303 462.485 103.57 461.499 102.622C460.512 101.674 459.734 100.531 459.214 99.2659C458.693 98.0005 458.442 96.6404 458.476 95.2726C458.51 93.9048 458.828 92.5592 459.41 91.3212C461.935 84.1631 469.058 78.4228 476.355 80.9471C477.301 81.1722 478.189 81.5941 478.961 82.1856C479.733 82.7771 480.371 83.5248 480.834 84.3798C481.298 85.2348 481.576 86.1778 481.65 87.1474C481.724 88.1171 481.593 89.0916 481.265 90.0071C480.66 91.6947 479.692 93.229 478.43 94.5025L461.624 88.7623ZM478.118 93.6033C479.088 92.5052 479.85 91.2398 480.366 89.8688C480.675 89.0678 480.806 88.209 480.749 87.3524C480.693 86.4957 480.451 85.6617 480.039 84.9081C479.628 84.1545 479.057 83.4995 478.367 82.9887C477.677 82.4779 476.884 82.1233 476.043 81.9499C473.401 81.2551 470.602 81.467 468.094 82.5516C465.586 83.6362 463.515 85.5308 462.211 87.9322L478.118 93.6033Z" fill="#E07207"/>
<path d="M491.668 113.006C489.99 113.27 488.273 113.14 486.654 112.626C483.196 111.416 482.435 109.168 483.472 106.471C483.85 105.514 484.325 104.598 484.89 103.739L493.881 89.1115L490.215 87.7975L490.734 86.9676L494.4 88.2816L497.858 83.0254L498.688 83.3021L495.402 88.5927L503.771 91.6014L503.252 92.4313L494.884 89.4228L485.858 104.154C485.321 104.94 484.88 105.787 484.544 106.678C483.645 109.168 484.544 110.724 487.207 111.761C488.77 112.201 490.407 112.307 492.014 112.073L491.668 113.006Z" fill="#E07207"/>
<path d="M505.881 118.709L509.858 93.5693L510.792 93.9153L506.988 117.637L527.148 99.8629L528.151 100.243L506.469 119.366L500.349 124.934C496.891 128.149 494.055 129.014 491.219 127.977C489.954 127.51 488.89 126.617 488.211 125.452L488.937 124.795C489.531 125.851 490.472 126.67 491.6 127.112C494.124 128.046 496.614 127.112 499.865 124.173L505.881 118.709Z" fill="#E07207"/>
<path d="M514.113 128.394C516.776 127.944 519.3 126.942 519.888 125.316C519.978 125.12 520.028 124.906 520.033 124.69C520.038 124.474 519.999 124.259 519.918 124.058C519.837 123.857 519.716 123.675 519.562 123.523C519.408 123.371 519.225 123.251 519.024 123.172C519.17 122.828 519.437 122.55 519.775 122.391C520.113 122.231 520.498 122.202 520.856 122.308C521.755 122.619 522.032 123.656 521.617 124.832C520.718 127.322 517.329 128.601 514.217 129.085L514.113 128.394Z" fill="#E07207"/>
<path d="M543.51 128.942C544.829 131.441 547.038 133.354 549.7 134.302C550.472 134.639 551.304 134.817 552.147 134.824C552.989 134.832 553.825 134.67 554.603 134.347C555.381 134.024 556.086 133.547 556.676 132.945C557.265 132.343 557.727 131.629 558.034 130.844C558.864 128.458 558.034 126.556 554.576 123.202C551.118 119.847 550.357 117.427 551.118 114.764C551.835 113.12 553.162 111.819 554.82 111.135C556.478 110.451 558.337 110.438 560.005 111.099C562.656 112.055 564.885 113.916 566.298 116.355L565.572 116.977C564.272 114.66 562.187 112.882 559.694 111.963C558.992 111.66 558.238 111.498 557.474 111.488C556.71 111.477 555.951 111.616 555.241 111.899C554.531 112.182 553.884 112.602 553.337 113.135C552.789 113.668 552.353 114.304 552.051 115.006C551.256 117.323 551.775 119.294 555.164 122.579C558.552 125.864 559.624 128.319 558.622 131.155C558.266 132.046 557.735 132.856 557.061 133.537C556.386 134.219 555.581 134.758 554.694 135.122C553.807 135.487 552.856 135.669 551.897 135.659C550.938 135.649 549.991 135.446 549.112 135.063C546.292 134.101 543.927 132.13 542.473 129.53L543.51 128.942Z" fill="#E07207"/>
<path d="M575.353 142.502C573.688 142.843 571.963 142.76 570.339 142.26C566.881 141.188 565.982 139.113 566.881 136.208C567.243 135.246 567.694 134.32 568.229 133.442L576.771 118.538L573.036 117.327L573.555 116.498L577.255 117.708L580.367 112.313L581.232 112.59L578.085 117.984L586.557 120.751L586.073 121.581L577.601 118.815L569.025 133.822C568.545 134.649 568.14 135.517 567.815 136.416C566.985 138.94 567.815 140.462 570.616 141.395C572.198 141.802 573.849 141.861 575.457 141.568L575.353 142.502Z" fill="#E07207"/>
<path d="M599.803 151.04C599.334 150.986 598.882 150.826 598.484 150.572C598.085 150.317 597.75 149.976 597.503 149.572C597.257 149.169 597.105 148.715 597.06 148.244C597.015 147.774 597.078 147.299 597.244 146.856C596.013 147.634 594.631 148.144 593.189 148.353C591.747 148.561 590.278 148.464 588.876 148.067C588.048 147.895 587.265 147.554 586.576 147.065C585.886 146.577 585.306 145.95 584.87 145.225C584.435 144.501 584.155 143.694 584.046 142.856C583.938 142.018 584.005 141.166 584.242 140.355C586.213 133.889 593.994 133.785 602.57 136.413L603.849 134.027C605.82 130.154 605.128 126.592 601.048 125.347C598.138 124.637 595.079 124.854 592.299 125.97V124.898C595.162 123.802 598.298 123.645 601.256 124.448C605.924 125.901 606.788 130.085 604.541 134.442L598.489 146.165C597.383 148.378 598.109 149.623 600.184 150.245L599.803 151.04ZM602.085 137.208C592.818 134.442 586.732 135.306 585.141 140.459C584.93 141.164 584.87 141.905 584.965 142.635C585.061 143.365 585.309 144.066 585.694 144.693C586.08 145.32 586.593 145.858 587.201 146.273C587.809 146.687 588.497 146.969 589.222 147.098C590.694 147.462 592.227 147.499 593.715 147.206C595.202 146.914 596.608 146.298 597.832 145.404L602.085 137.208Z" fill="#E07207"/>
<path d="M612.769 154.223L614.948 128.91L615.916 129.152L613.806 153.082L632.687 133.924L633.69 134.235L613.391 154.983L607.686 160.966C604.228 164.424 601.703 165.461 598.799 164.631C597.507 164.259 596.384 163.453 595.617 162.349L596.309 161.623C596.963 162.636 597.956 163.384 599.11 163.732C601.703 164.493 604.124 163.387 607.167 160.274L612.769 154.223Z" fill="#E07207"/>
<path d="M644.172 163.25L654.546 141.015L651.088 140.047L651.503 139.182L654.961 140.116L657.52 134.514C659.595 130.122 662.43 128.635 665.024 129.292C666.433 129.67 667.661 130.541 668.482 131.748L667.859 132.439C667.127 131.325 666.005 130.523 664.712 130.192C662.257 129.569 660.079 131.333 658.384 134.894L655.86 140.358L661.462 141.81L661.012 142.675L655.48 141.223L645.106 163.492L644.172 163.25Z" fill="#E07207"/>
<path d="M684.317 158.132C682.553 165.567 675.637 171.583 668.099 169.785C666.754 169.414 665.497 168.774 664.405 167.906C663.313 167.037 662.407 165.957 661.742 164.73C661.077 163.503 660.666 162.155 660.535 160.766C660.403 159.376 660.553 157.975 660.975 156.645C662.739 149.21 669.655 143.158 677.193 144.991C678.555 145.336 679.83 145.959 680.938 146.822C682.046 147.684 682.964 148.767 683.633 150.001C684.303 151.236 684.709 152.595 684.827 153.995C684.944 155.394 684.771 156.803 684.317 158.132ZM661.874 156.852C661.467 158.061 661.312 159.341 661.418 160.612C661.525 161.883 661.891 163.119 662.493 164.244C663.096 165.368 663.923 166.357 664.923 167.15C665.922 167.942 667.074 168.521 668.306 168.852C675.222 170.546 681.723 164.91 683.418 157.924C683.825 156.713 683.981 155.431 683.875 154.158C683.769 152.884 683.403 151.645 682.801 150.518C682.198 149.391 681.372 148.399 680.372 147.603C679.372 146.807 678.22 146.224 676.986 145.89C670.001 144.23 663.569 149.867 661.805 156.852H661.874Z" fill="#E07207"/>
<path d="M704.507 175.665C702.247 176.661 699.732 176.927 697.314 176.425C695.979 176.126 694.721 175.551 693.62 174.739C692.519 173.927 691.6 172.894 690.92 171.706C690.24 170.519 689.815 169.203 689.672 167.843C689.528 166.482 689.669 165.106 690.087 163.804C691.643 156.369 697.971 149.729 705.544 151.355C706.983 151.625 708.347 152.204 709.541 153.051C710.735 153.899 711.731 154.995 712.46 156.265L711.872 157.095C711.227 155.841 710.302 154.752 709.169 153.913C708.035 153.073 706.724 152.506 705.337 152.254C698.421 150.802 692.507 157.026 691.055 163.942C690.662 165.129 690.523 166.385 690.645 167.629C690.767 168.873 691.148 170.077 691.763 171.165C692.379 172.253 693.216 173.2 694.219 173.945C695.223 174.69 696.371 175.217 697.591 175.492C699.997 175.97 702.492 175.667 704.714 174.627L704.507 175.665Z" fill="#E07207"/>
<path d="M728.892 182.407L730.621 177.773C727.739 180.076 724.102 181.223 720.42 180.989C716.167 180.228 714.68 177.531 715.441 173.209C715.643 172.025 715.967 170.867 716.409 169.751L721.942 154.95L722.875 155.123L717.308 170.166C716.907 171.224 716.584 172.311 716.34 173.416C715.717 176.874 716.893 179.502 720.558 180.125C724.39 180.31 728.157 179.079 731.14 176.667L738.056 158.166H738.955L729.93 182.372L728.892 182.407Z" fill="#E07207"/>
<path d="M741.338 180.539C743.115 182.736 745.639 184.202 748.427 184.654C749.245 184.836 750.091 184.853 750.916 184.704C751.741 184.554 752.527 184.242 753.229 183.784C753.931 183.327 754.535 182.734 755.005 182.04C755.475 181.346 755.802 180.566 755.966 179.744C756.312 177.254 755.274 175.525 751.263 172.828C747.252 170.131 746.041 167.952 746.456 165.151C746.855 163.408 747.913 161.886 749.408 160.906C750.904 159.926 752.721 159.564 754.479 159.895C757.26 160.332 759.797 161.741 761.637 163.872L761.049 164.632C759.345 162.591 756.964 161.228 754.341 160.794C752.837 160.465 751.263 160.746 749.967 161.576C748.67 162.406 747.756 163.717 747.425 165.22C747.079 167.641 747.978 169.508 751.885 172.136C755.793 174.764 757.349 176.977 756.934 179.917C756.749 180.858 756.378 181.752 755.843 182.547C755.307 183.343 754.618 184.023 753.816 184.548C753.014 185.073 752.114 185.433 751.171 185.605C750.228 185.778 749.26 185.76 748.324 185.553C745.377 185.122 742.693 183.62 740.785 181.334L741.338 180.539Z" fill="#E07207"/>
<path d="M767.688 174.175C767.409 175.195 767.213 176.236 767.101 177.287C766.837 178.507 766.83 179.769 767.08 180.992C767.33 182.215 767.832 183.372 768.555 184.39C769.277 185.408 770.203 186.265 771.274 186.906C772.346 187.546 773.539 187.957 774.777 188.111C777.189 188.337 779.611 187.792 781.693 186.555C781.693 186.866 781.693 187.246 781.693 187.592C779.535 188.79 777.06 189.297 774.604 189.045C773.246 188.883 771.937 188.439 770.761 187.742C769.584 187.045 768.566 186.11 767.771 184.996C766.977 183.883 766.424 182.616 766.148 181.277C765.872 179.937 765.878 178.555 766.167 177.218C766.962 169.714 772.564 162.452 780.276 163.386C781.255 163.379 782.224 163.581 783.12 163.977C784.015 164.373 784.816 164.955 785.47 165.684C786.124 166.413 786.616 167.273 786.912 168.206C787.209 169.139 787.304 170.125 787.192 171.098C786.954 172.883 786.354 174.601 785.428 176.146L767.688 174.175ZM784.979 175.074C785.66 173.79 786.117 172.398 786.327 170.959C786.464 170.096 786.409 169.214 786.168 168.374C785.927 167.534 785.505 166.757 784.932 166.098C784.358 165.439 783.647 164.913 782.849 164.558C782.05 164.203 781.184 164.027 780.31 164.043C777.554 163.963 774.85 164.813 772.636 166.456C770.421 168.1 768.825 170.441 768.103 173.103L784.979 175.074Z" fill="#E07207"/>
<path d="M809.528 191.501L810.358 188.043C808.123 190.259 805.103 191.502 801.955 191.501C796.146 191.121 793.414 186.522 793.76 180.609C794.278 172.517 799.638 165.255 806.9 165.739C808.45 165.824 809.964 166.238 811.341 166.953C812.718 167.669 813.928 168.669 814.888 169.889L818.657 154.777L819.66 154.5L810.496 191.57L809.528 191.501ZM814.611 170.995C813.735 169.775 812.604 168.759 811.296 168.019C809.989 167.279 808.536 166.831 807.038 166.707C800.122 166.258 795.316 173.381 794.866 180.539C794.486 186.107 796.975 190.153 802.232 190.464C803.88 190.43 805.503 190.052 806.998 189.356C808.492 188.659 809.825 187.659 810.911 186.418L814.611 170.995Z" fill="#E07207"/>
<path d="M817.105 197.83C819.491 196.55 821.601 194.787 821.635 193.092C821.665 192.874 821.648 192.652 821.585 192.441C821.522 192.23 821.415 192.035 821.271 191.868C821.128 191.701 820.95 191.567 820.751 191.474C820.551 191.381 820.334 191.332 820.114 191.329C820.163 190.955 820.342 190.611 820.621 190.358C820.9 190.105 821.259 189.958 821.635 189.945C822.569 189.945 823.157 190.879 823.122 192.089C823.122 194.752 820.218 197.034 817.417 198.452L817.105 197.83Z" fill="#E07207"/>
<path d="M863.961 190.289C861.966 191.797 859.545 192.633 857.045 192.675C855.678 192.693 854.323 192.427 853.065 191.893C851.807 191.359 850.674 190.57 849.737 189.575C848.801 188.58 848.081 187.401 847.625 186.113C847.168 184.825 846.985 183.456 847.085 182.093C846.913 174.486 851.512 166.601 859.258 166.394C860.716 166.342 862.169 166.599 863.522 167.147C864.875 167.695 866.096 168.523 867.107 169.575L866.692 170.543C865.776 169.473 864.626 168.626 863.331 168.069C862.036 167.511 860.631 167.258 859.223 167.327C852.307 167.5 847.846 174.935 848.019 181.989C847.918 183.237 848.078 184.492 848.489 185.675C848.899 186.858 849.551 187.942 850.403 188.859C851.255 189.776 852.289 190.506 853.438 191.002C854.587 191.498 855.827 191.75 857.079 191.741C859.522 191.64 861.87 190.768 863.788 189.251L863.961 190.289Z" fill="#E07207"/>
<path d="M873.887 191.638L876.964 166.083L877.933 165.668L877.276 171.477C878.97 167.604 881.252 165.357 884.399 165.184C885.619 165.093 886.836 165.409 887.857 166.083L887.65 167.12C886.66 166.375 885.422 166.041 884.192 166.187C880.734 166.394 878.313 169.645 876.688 174.797L874.717 191.603L873.887 191.638Z" fill="#E07207"/>
<path d="M893.875 176.701C893.805 177.761 893.805 178.823 893.875 179.883C893.861 181.133 894.108 182.372 894.601 183.521C895.093 184.67 895.819 185.705 896.734 186.557C897.648 187.41 898.73 188.062 899.911 188.473C901.092 188.884 902.346 189.044 903.592 188.943C906.025 188.688 908.309 187.643 910.093 185.969C910.093 186.314 910.093 186.695 910.093 187.041C908.241 188.652 905.932 189.644 903.488 189.876C902.125 189.997 900.751 189.831 899.456 189.39C898.16 188.948 896.971 188.241 895.965 187.313C894.959 186.385 894.158 185.257 893.613 184.001C893.069 182.745 892.793 181.389 892.803 180.021C892.077 172.482 896.088 164.252 903.799 163.492C904.755 163.293 905.741 163.298 906.695 163.507C907.648 163.717 908.546 164.126 909.33 164.707C910.114 165.289 910.766 166.029 911.243 166.881C911.72 167.732 912.012 168.675 912.098 169.647C912.222 171.439 911.987 173.237 911.407 174.938L893.875 176.701ZM910.888 174.142C911.287 172.726 911.45 171.254 911.372 169.785C911.309 168.93 911.062 168.099 910.648 167.349C910.234 166.598 909.662 165.946 908.973 165.437C908.283 164.928 907.491 164.574 906.652 164.399C905.813 164.225 904.946 164.234 904.11 164.425C901.394 164.898 898.917 166.275 897.083 168.335C895.25 170.395 894.168 173.014 894.013 175.767L910.888 174.142Z" fill="#E07207"/>
<path d="M938.621 185.449C938.173 185.592 937.698 185.631 937.232 185.562C936.767 185.493 936.323 185.318 935.936 185.051C935.548 184.784 935.227 184.432 934.997 184.021C934.767 183.61 934.635 183.152 934.61 182.682C933.81 183.901 932.762 184.937 931.534 185.724C930.307 186.51 928.928 187.029 927.486 187.247C926.666 187.432 925.816 187.445 924.991 187.285C924.165 187.126 923.382 186.797 922.69 186.319C921.998 185.842 921.412 185.226 920.97 184.511C920.528 183.795 920.239 182.996 920.121 182.164C919.222 175.455 926.241 172.135 935.128 170.96L935.301 168.263C935.509 163.94 933.365 160.966 929.146 161.347C926.208 161.914 923.523 163.39 921.469 165.565L921.123 164.528C923.266 162.341 926.054 160.899 929.077 160.413C933.918 159.79 936.442 163.248 936.2 168.124L935.578 181.334C935.578 183.789 936.685 184.792 938.794 184.308L938.621 185.449ZM935.163 171.963C925.584 173.277 920.397 176.596 921.089 181.991C921.197 182.715 921.456 183.409 921.848 184.027C922.24 184.646 922.757 185.175 923.366 185.582C923.975 185.989 924.662 186.264 925.383 186.39C926.105 186.516 926.845 186.49 927.555 186.313C929.051 186.037 930.467 185.435 931.704 184.551C932.941 183.666 933.968 182.521 934.713 181.195L935.163 171.963Z" fill="#E07207"/>
<path d="M957.605 181.543C956.264 182.571 954.701 183.27 953.041 183.583C949.583 184.136 947.75 182.753 947.266 179.745C947.172 178.721 947.172 177.691 947.266 176.667L948.096 159.377L944.223 159.999V159.031L948.096 158.408L948.407 152.184H949.271L948.96 158.408L957.743 157.025V157.959L948.96 159.377L948.165 176.667C948.072 177.61 948.072 178.56 948.165 179.502C948.58 182.131 950.032 182.96 952.937 182.649C954.532 182.296 956.03 181.6 957.328 180.609L957.605 181.543Z" fill="#E07207"/>
<path d="M965.656 148.069C965.605 147.812 965.655 147.546 965.798 147.326C965.94 147.107 966.162 146.951 966.417 146.893C966.678 146.868 966.939 146.943 967.147 147.103C967.355 147.262 967.495 147.494 967.539 147.753C967.582 148.011 967.527 148.276 967.383 148.496C967.239 148.715 967.018 148.871 966.763 148.933C966.502 148.963 966.24 148.889 966.033 148.727C965.826 148.566 965.691 148.329 965.656 148.069ZM965.899 181.059L966.071 155.296L967.005 154.778L966.798 180.885L965.899 181.059Z" fill="#E07207"/>
<path d="M983.608 177.91L974.133 153.704H975.101L983.884 176.077L992.357 150.418L993.359 150.211L984.334 177.875L983.608 177.91Z" fill="#E07207"/>
<path d="M999.856 160.829C999.907 161.876 1000.05 162.917 1000.27 163.941C1000.4 165.184 1000.78 166.388 1001.4 167.475C1002.01 168.562 1002.85 169.509 1003.85 170.257C1004.85 171.005 1006 171.536 1007.21 171.818C1008.43 172.1 1009.69 172.126 1010.92 171.895C1013.31 171.361 1015.46 170.061 1017.04 168.194C1017.04 168.54 1017.25 168.886 1017.32 169.232C1015.63 170.992 1013.45 172.198 1011.06 172.69C1009.72 172.957 1008.34 172.942 1007.01 172.645C1005.67 172.348 1004.41 171.776 1003.31 170.966C1002.21 170.155 1001.3 169.124 1000.62 167.938C999.938 166.753 999.514 165.438 999.372 164.079C997.781 156.645 1000.86 148.034 1008.47 146.409C1009.39 146.112 1010.37 146.014 1011.33 146.119C1012.3 146.225 1013.23 146.532 1014.07 147.021C1014.9 147.51 1015.63 148.17 1016.2 148.959C1016.76 149.747 1017.16 150.646 1017.35 151.596C1017.75 153.361 1017.75 155.191 1017.35 156.956L999.856 160.829ZM1016.49 156.334C1016.73 154.903 1016.73 153.441 1016.49 152.011C1016.34 151.164 1016 150.361 1015.51 149.656C1015.02 148.952 1014.38 148.363 1013.63 147.932C1012.89 147.501 1012.06 147.237 1011.2 147.159C1010.35 147.081 1009.48 147.191 1008.67 147.481C1006.03 148.251 1003.73 149.894 1002.14 152.143C1000.55 154.391 999.769 157.112 999.925 159.861L1016.49 156.334Z" fill="#E07207"/>
<path d="M1058.27 161.864C1057.84 162.055 1057.37 162.144 1056.9 162.124C1056.42 162.104 1055.96 161.975 1055.55 161.748C1055.13 161.52 1054.77 161.2 1054.5 160.813C1054.23 160.425 1054.05 159.98 1053.98 159.512C1053.31 160.806 1052.37 161.943 1051.22 162.849C1050.08 163.754 1048.76 164.409 1047.34 164.768C1046.54 165.031 1045.69 165.125 1044.85 165.046C1044.01 164.966 1043.19 164.714 1042.45 164.305C1041.71 163.897 1041.07 163.34 1040.55 162.67C1040.04 162 1039.67 161.231 1039.46 160.411C1037.94 153.841 1044.58 149.83 1053.29 147.79V145.092C1053.08 140.735 1050.66 138.176 1046.38 139.006C1043.5 139.835 1040.96 141.554 1039.11 143.917L1038.7 142.948C1040.61 140.561 1043.24 138.852 1046.2 138.072C1050.98 136.931 1053.81 140.147 1054.05 144.989L1054.74 158.198C1054.74 160.653 1056.2 161.656 1058.2 160.826L1058.27 161.864ZM1053.36 148.827C1043.92 151.075 1039.11 154.878 1040.32 160.169C1040.5 160.886 1040.83 161.557 1041.28 162.139C1041.74 162.721 1042.31 163.2 1042.96 163.546C1043.62 163.892 1044.33 164.096 1045.07 164.146C1045.81 164.196 1046.55 164.09 1047.24 163.835C1048.7 163.409 1050.05 162.669 1051.19 161.665C1052.33 160.661 1053.24 159.418 1053.85 158.025L1053.36 148.827Z" fill="#E07207"/>
<path d="M1081.72 156.09L1080.85 140.253C1080.8 139.09 1080.65 137.933 1080.4 136.795C1079.57 133.337 1077.46 131.469 1073.9 132.334C1070.3 133.73 1067.36 136.418 1065.64 139.872L1066.74 159.618L1065.81 159.825L1064.39 134.098L1065.29 133.544L1065.57 138.489C1067.3 135.263 1070.17 132.797 1073.62 131.573C1077.81 130.536 1080.33 132.507 1081.33 136.691C1081.58 137.83 1081.73 138.986 1081.78 140.149L1082.61 155.952L1081.72 156.09Z" fill="#E07207"/>
<path d="M1109.07 149.832L1108.9 146.374C1107.42 149.095 1104.94 151.13 1101.98 152.045C1096.28 153.325 1092.37 149.659 1091.09 143.884C1089.29 136 1092.4 127.563 1099.53 125.937C1101.04 125.591 1102.61 125.569 1104.13 125.873C1105.65 126.177 1107.08 126.8 1108.34 127.701L1107.76 112.14L1108.62 111.621L1110.18 149.659L1109.07 149.832ZM1108.24 128.669C1107.04 127.727 1105.64 127.062 1104.16 126.721C1102.67 126.381 1101.12 126.373 1099.63 126.698C1092.92 128.185 1090.22 136.381 1091.82 143.469C1093.03 148.933 1096.52 152.114 1101.67 150.939C1103.24 150.435 1104.7 149.613 1105.94 148.525C1107.18 147.436 1108.19 146.104 1108.9 144.61L1108.24 128.669Z" fill="#E07207"/>
<path d="M1134.42 157.545L1134.04 118.677L1134.93 118.158V122.204C1136.56 119.573 1139.14 117.666 1142.13 116.879C1147.87 115.772 1151.67 119.541 1152.78 125.351C1154.3 133.27 1150.94 141.673 1143.79 143.056C1142.28 143.359 1140.73 143.337 1139.23 142.991C1137.73 142.645 1136.33 141.983 1135.11 141.05V157.372L1134.42 157.545ZM1135.14 139.909C1136.29 140.883 1137.65 141.587 1139.11 141.97C1140.57 142.353 1142.1 142.405 1143.58 142.122C1150.32 140.808 1153.26 132.716 1151.91 125.593C1150.84 120.095 1147.45 116.809 1142.3 117.812C1140.72 118.263 1139.26 119.037 1137.99 120.084C1136.73 121.132 1135.7 122.431 1134.97 123.898L1135.14 139.909Z" fill="#E07207"/>
<path d="M1162.11 139.042L1162.42 113.279L1163.35 112.795V118.639C1164.63 114.628 1166.81 112.138 1169.75 111.723C1170.93 111.505 1172.15 111.687 1173.21 112.242V113.314C1172.17 112.696 1170.94 112.486 1169.75 112.726C1166.29 113.279 1164.25 116.772 1163.22 122.063V139.007L1162.11 139.042Z" fill="#E07207"/>
<path d="M1201.74 118.294C1202.81 125.867 1198.59 133.993 1190.92 135.1C1189.52 135.252 1188.12 135.122 1186.78 134.716C1185.44 134.311 1184.2 133.639 1183.12 132.741C1182.05 131.843 1181.17 130.738 1180.54 129.491C1179.9 128.244 1179.53 126.882 1179.43 125.486C1178.36 117.913 1182.58 109.787 1190.26 108.68C1191.65 108.528 1193.06 108.659 1194.39 109.064C1195.73 109.469 1196.98 110.141 1198.05 111.039C1199.12 111.937 1200 113.043 1200.63 114.289C1201.27 115.536 1201.64 116.898 1201.74 118.294ZM1180.51 125.21C1180.57 126.482 1180.9 127.728 1181.47 128.87C1182.03 130.012 1182.82 131.027 1183.8 131.852C1184.77 132.677 1185.9 133.296 1187.11 133.67C1188.33 134.044 1189.61 134.166 1190.88 134.028C1198 132.99 1201.91 125.417 1200.91 118.294C1200.84 117.021 1200.51 115.776 1199.95 114.634C1199.38 113.492 1198.59 112.477 1197.62 111.651C1196.65 110.826 1195.52 110.207 1194.3 109.833C1193.08 109.459 1191.8 109.338 1190.53 109.476C1183.27 110.513 1179.37 118.294 1180.51 125.21Z" fill="#E07207"/>
<path d="M1227.19 130.225L1227.47 126.767C1225.62 129.318 1222.83 131.034 1219.72 131.539C1213.91 132.092 1210.49 128.081 1209.9 122.099C1209.1 114.041 1213.36 106.019 1220.52 105.327C1222.02 105.152 1223.54 105.292 1224.99 105.738C1226.44 106.185 1227.78 106.928 1228.92 107.921L1230.2 92.3944L1231.17 91.9448L1227.99 129.983L1227.19 130.225ZM1228.95 109.131C1227.88 108.05 1226.57 107.22 1225.14 106.7C1223.71 106.18 1222.17 105.983 1220.65 106.123C1213.74 106.78 1210.11 114.595 1210.83 121.822C1211.35 127.355 1214.29 130.951 1219.69 130.467C1221.3 130.156 1222.84 129.517 1224.2 128.589C1225.57 127.662 1226.72 126.465 1227.6 125.073L1228.95 109.131Z" fill="#E07207"/>
<path d="M1254.44 128.843L1255.09 123.932C1252.79 126.813 1249.5 128.736 1245.86 129.327C1241.54 129.534 1239.46 127.114 1239.26 122.791C1239.24 121.635 1239.31 120.479 1239.46 119.333L1241.64 103.669H1242.58L1240.4 119.402C1240.25 120.549 1240.18 121.704 1240.19 122.861C1240.19 126.526 1242.09 128.67 1245.76 128.497C1249.56 127.801 1252.97 125.703 1255.3 122.618L1257.96 103.081H1258.9L1255.44 128.635L1254.44 128.843Z" fill="#E07207"/>
<path d="M1282.59 126.662C1280.56 128.075 1278.14 128.802 1275.67 128.737C1274.3 128.704 1272.96 128.384 1271.72 127.8C1270.49 127.215 1269.39 126.377 1268.49 125.341C1267.6 124.305 1266.93 123.093 1266.54 121.784C1266.14 120.475 1266.03 119.097 1266.2 117.74C1266.2 110.167 1271.25 102.456 1278.99 102.594C1280.45 102.581 1281.89 102.884 1283.22 103.481C1284.56 104.077 1285.74 104.955 1286.7 106.052L1286.25 106.986C1285.37 105.892 1284.26 105.012 1282.99 104.413C1281.72 103.814 1280.33 103.511 1278.92 103.528C1272.01 103.528 1267.23 110.444 1267.13 117.706C1266.98 118.944 1267.08 120.202 1267.44 121.397C1267.8 122.593 1268.4 123.701 1269.21 124.651C1270.02 125.601 1271.02 126.372 1272.14 126.915C1273.27 127.457 1274.49 127.76 1275.74 127.803C1278.22 127.845 1280.65 127.081 1282.66 125.624L1282.59 126.662Z" fill="#E07207"/>
<path d="M1302.4 128.668C1300.85 129.37 1299.16 129.69 1297.46 129.602C1294 129.325 1292.51 127.561 1292.76 124.518C1292.89 123.499 1293.11 122.492 1293.41 121.51L1298.22 105.05L1294.35 104.739L1294.62 103.805L1298.5 104.116L1300.29 98.1338H1301.16L1299.4 104.116L1308.25 104.808L1307.97 105.741L1299.08 105.015L1294.28 121.752C1293.99 122.664 1293.79 123.602 1293.69 124.553C1293.48 127.181 1294.62 128.495 1297.6 128.737C1299.21 128.776 1300.82 128.457 1302.3 127.804L1302.4 128.668Z" fill="#E07207"/>
<path d="M1310.15 130.502L1317.89 105.95L1318.93 105.742L1311.08 130.605L1310.15 130.502ZM1319.62 98.8953C1319.63 98.7656 1319.67 98.6392 1319.73 98.5245C1319.79 98.4097 1319.88 98.3092 1319.98 98.229C1320.08 98.1488 1320.2 98.0908 1320.33 98.0589C1320.45 98.0269 1320.58 98.0217 1320.71 98.0435C1320.84 98.0652 1320.96 98.1135 1321.07 98.1853C1321.18 98.257 1321.27 98.3506 1321.34 98.4601C1321.41 98.5696 1321.46 98.6927 1321.48 98.8212C1321.5 98.9497 1321.49 99.0808 1321.46 99.2064C1321.45 99.3323 1321.41 99.4553 1321.36 99.5677C1321.3 99.6802 1321.22 99.7799 1321.12 99.8607C1321.03 99.9415 1320.91 100.002 1320.79 100.038C1320.67 100.074 1320.54 100.085 1320.42 100.071C1320.29 100.046 1320.17 99.9959 1320.06 99.9234C1319.95 99.8508 1319.85 99.7571 1319.78 99.6479C1319.7 99.5387 1319.65 99.4162 1319.63 99.287C1319.6 99.1578 1319.6 99.0247 1319.62 98.8953Z" fill="#E07207"/>
<path d="M1327.68 133.026L1327.4 107.16L1328.37 107.333L1328.61 131.539L1345.63 110.549H1346.66L1328.41 133.095L1327.68 133.026Z" fill="#E07207"/>
<path d="M1349.63 123.274C1349.21 124.245 1348.88 125.252 1348.63 126.282C1348.21 127.459 1348.04 128.709 1348.13 129.955C1348.22 131.2 1348.57 132.413 1349.16 133.515C1349.74 134.618 1350.55 135.587 1351.53 136.36C1352.51 137.133 1353.65 137.693 1354.85 138.005C1357.24 138.562 1359.74 138.319 1361.98 137.313C1361.93 137.663 1361.86 138.009 1361.77 138.351C1359.49 139.284 1356.97 139.478 1354.58 138.904C1353.25 138.577 1352 137.975 1350.92 137.137C1349.83 136.299 1348.94 135.243 1348.29 134.038C1347.64 132.833 1347.24 131.505 1347.14 130.14C1347.03 128.774 1347.21 127.402 1347.66 126.109C1349.46 118.744 1355.93 112.277 1363.46 114.076C1364.43 114.203 1365.35 114.532 1366.18 115.041C1367.01 115.551 1367.72 116.229 1368.27 117.032C1368.82 117.834 1369.19 118.743 1369.36 119.7C1369.54 120.656 1369.51 121.638 1369.27 122.582C1368.84 124.323 1368.04 125.951 1366.92 127.354L1349.63 123.274ZM1366.54 126.352C1367.39 125.155 1368.02 123.822 1368.41 122.409C1368.62 121.581 1368.66 120.716 1368.51 119.874C1368.36 119.032 1368.03 118.231 1367.54 117.527C1367.06 116.822 1366.43 116.229 1365.69 115.789C1364.96 115.349 1364.14 115.071 1363.29 114.975C1360.57 114.542 1357.78 115.04 1355.38 116.39C1352.97 117.739 1351.1 119.86 1350.05 122.409L1366.54 126.352Z" fill="#E07207"/>
</svg>
