<svg width="1370" height="199" fill="none" xmlns="http://www.w3.org/2000/svg"><path d="m19.2 38.761-6.466-15.284-9.06.726-2.213 15.18H.527L5.611 4.596l7.85-.277c6.57-.242 10.373 2.628 10.546 7.988a10.858 10.858 0 0 1-10.374 11.066l6.64 15.319-1.072.07Zm-6.708-16.149a10.167 10.167 0 0 0 10.374-10.374c-.173-4.876-3.458-7.296-9.579-6.916l-6.916.242L3.778 23.27l8.714-.657Zm17.811 2.316a24.417 24.417 0 0 0-.207 3.147 9.026 9.026 0 0 0 8.99 9.786 11.308 11.308 0 0 0 6.71-2.455v1.072a12.207 12.207 0 0 1-6.917 2.351 9.855 9.855 0 0 1-9.89-10.65c0-7.608 4.496-15.492 12.241-15.63a6.917 6.917 0 0 1 7.781 6.915 12.935 12.935 0 0 1-1.072 5.222l-17.636.242Zm17.29-1.28c.52-1.357.79-2.799.796-4.253a5.915 5.915 0 0 0-6.916-5.913 12.173 12.173 0 0 0-10.928 10.374l17.048-.207ZM72.8 38.036l.623-3.458a11.895 11.895 0 0 1-8.16 3.976c-5.845 0-8.853-4.391-8.888-10.374 0-8.091 4.876-15.699 12.172-15.699a10.962 10.962 0 0 1 8.23 3.631L79.578.793l.968-.346-6.916 37.589h-.83Zm3.77-20.748a10.373 10.373 0 0 0-7.954-3.804c-6.916 0-11.307 7.435-11.273 14.696 0 5.602 2.697 9.475 7.988 9.44a11.931 11.931 0 0 0 8.403-4.598l2.836-15.734Zm23.791 21.473.969-4.875a15.01 15.01 0 0 1-9.58 4.84c-4.287 0-6.224-2.593-6.154-6.915.021-1.164.16-2.323.414-3.458l3.113-15.492h.933l-3.112 15.526a18.738 18.738 0 0 0-.415 3.458c0 3.458 1.522 5.879 5.187 5.948 3.83-.48 7.35-2.35 9.89-5.256l3.838-19.365h.934L101.33 38.45l-.969.311Zm28.605-1.384a11.897 11.897 0 0 1-6.917 1.972 9.817 9.817 0 0 1-7.099-3.54 9.827 9.827 0 0 1-2.168-7.63c.242-7.573 5.325-15.215 13.071-14.938a10.166 10.166 0 0 1 7.642 3.458l-.449.933a9.24 9.24 0 0 0-7.262-3.63c-7.089-.243-11.826 6.916-12.068 13.832a9.02 9.02 0 0 0 4.827 9.405 9.033 9.033 0 0 0 3.61.969c2.473.06 4.898-.68 6.916-2.11l-.103 1.28Zm11.061-11.412a24.506 24.506 0 0 0-.415 3.146 9.068 9.068 0 0 0 1.862 6.975 9.057 9.057 0 0 0 6.368 3.4c2.458.11 4.885-.582 6.916-1.972v1.072a12.206 12.206 0 0 1-6.916 1.833 9.859 9.859 0 0 1-8.857-7.322 9.87 9.87 0 0 1-.203-4.055c.415-7.573 5.602-15.077 13.348-14.662a6.919 6.919 0 0 1 7.262 7.331 12.678 12.678 0 0 1-1.453 5.118l-17.912-.864Zm17.29 0c.616-1.318.99-2.735 1.106-4.185a5.92 5.92 0 0 0-1.699-4.672 5.91 5.91 0 0 0-4.663-1.725 12.207 12.207 0 0 0-11.688 9.682l16.944.9Zm20.713 12.521a11.414 11.414 0 0 0 7.331 3.665 6.262 6.262 0 0 0 7.228-5.325c.207-2.525-.934-4.184-5.084-6.605-4.149-2.42-5.498-4.565-5.256-7.4a6.713 6.713 0 0 1 5.035-5.59 6.706 6.706 0 0 1 2.642-.116 11.999 11.999 0 0 1 7.4 3.458l-.553.795a10.79 10.79 0 0 0-6.916-3.458 5.812 5.812 0 0 0-5.881 2.68 5.804 5.804 0 0 0-.793 2.127c-.208 2.42.795 4.253 4.876 6.57 4.08 2.317 5.705 4.496 5.463 7.47a7.198 7.198 0 0 1-5.414 6.038 7.192 7.192 0 0 1-2.85.117 12.033 12.033 0 0 1-7.746-3.804l.518-.622Zm34.235 5.806a10.549 10.549 0 0 1-4.945.796c-3.458-.346-4.911-2.179-4.599-5.187a15.96 15.96 0 0 1 .726-3.009l5.187-16.356-3.873-.415.311-.9 3.873.416 1.937-5.948h.864l-1.902 5.913 8.853.934-.311.899-8.853-.9-5.222 16.46a13.411 13.411 0 0 0-.657 2.767c-.276 2.663.865 4.012 3.804 4.288 1.621.073 3.238-.21 4.738-.83l.069 1.072Zm7.919 1.73 7.642-24.552 1.037-.207-1.729 5.567a8.786 8.786 0 0 1 8.161-4.91 5.43 5.43 0 0 1 3.251 1.521l-.381 1.003a4.77 4.77 0 0 0-3.112-1.556c-3.458-.415-6.397 2.351-8.922 7.123l-5.014 16.15-.933-.139Zm22.166-10.997c-.3 1.02-.531 2.06-.691 3.112a8.981 8.981 0 0 0 1.214 7.138 8.99 8.99 0 0 0 6.082 3.928 11.48 11.48 0 0 0 6.916-1.314 9.447 9.447 0 0 0 0 1.037 11.825 11.825 0 0 1-7.123 1.21 9.819 9.819 0 0 1-8.211-8.043 9.838 9.838 0 0 1 .153-4.06c1.072-7.504 6.916-14.558 14.593-13.451a6.915 6.915 0 0 1 6.605 7.919 12.782 12.782 0 0 1-1.902 4.98l-17.636-2.456Zm17.29 1.487a12.254 12.254 0 0 0 1.487-4.08 5.917 5.917 0 0 0-1.299-4.807 5.914 5.914 0 0 0-4.51-2.11 12.242 12.242 0 0 0-12.484 8.61l16.806 2.387Zm5.356 12.034a11.445 11.445 0 0 0 6.916 4.253 6.256 6.256 0 0 0 7.642-4.737c.415-2.49-.623-4.253-4.53-6.916-3.908-2.663-5.153-4.98-4.668-7.78a6.913 6.913 0 0 1 8.126-5.084 11.897 11.897 0 0 1 6.916 4.15l-.588.726a11.1 11.1 0 0 0-6.639-3.942 5.776 5.776 0 0 0-6.916 4.253c-.415 2.42.449 4.288 4.322 6.916s5.36 4.945 4.876 7.884a7.194 7.194 0 0 1-8.714 5.43 12.239 12.239 0 0 1-7.469-4.358l.726-.795Zm22.373 3.772a11.409 11.409 0 0 0 6.916 4.391 6.257 6.257 0 0 0 7.745-4.53c.485-2.524-.518-4.288-4.391-6.916s-5.014-5.118-4.496-7.884a6.917 6.917 0 0 1 8.265-4.91 11.791 11.791 0 0 1 6.916 4.287l-.622.727a11.033 11.033 0 0 0-6.501-4.115 5.846 5.846 0 0 0-7.159 4.115c-.449 2.386.381 4.288 4.185 6.916 3.803 2.628 5.256 5.048 4.703 7.988a7.16 7.16 0 0 1-8.853 5.222 11.897 11.897 0 0 1-7.331-4.53l.623-.761Zm60.658 16.944c-.761-3.804-1.695-6.916-2.525-9.752-4.426 3.458-9.371 6.916-14.454 5.706a7.85 7.85 0 0 1-6.259-9.682c1.452-6.294 8.161-8.161 13.278-8.507a9.61 9.61 0 0 1-3.077-8.507 8.854 8.854 0 0 1 10.616-6.328 6.916 6.916 0 0 1 5.498 8.507c-1.141 4.737-6.363 6.916-11.065 7.192a31.124 31.124 0 0 1 5.947 10.167l10.72-9.199 1.107.277-11.585 9.752a98.927 98.927 0 0 1 2.698 10.374h-.899Zm-9.233-21.44c-6.086 0-11.861 2.628-13.106 7.884a6.912 6.912 0 0 0 2.966 7.6 6.918 6.918 0 0 0 2.705 1.01c4.634 1.108 9.682-2.247 13.832-5.636a28.15 28.15 0 0 0-6.397-10.858Zm11.377-7.262a6.072 6.072 0 0 0-.775-4.752 6.053 6.053 0 0 0-3.998-2.682 7.986 7.986 0 0 0-9.509 5.602 9.714 9.714 0 0 0 3.458 8.368c4.599-.104 9.752-2.075 10.824-6.536Zm37.828 39.004a3.113 3.113 0 0 1-2.628-4.115 10.373 10.373 0 0 1-8.368 1.384 6.114 6.114 0 0 1-4.048-2.762 6.11 6.11 0 0 1-.724-4.846c1.832-6.501 9.578-6.916 18.223-4.357l1.211-2.42c1.902-3.874 1.106-7.435-2.974-8.577a14.178 14.178 0 0 0-8.749.83V53.63a14.386 14.386 0 0 1 8.922-.657c4.737 1.314 5.671 5.498 3.458 9.89l-5.775 11.861c-1.038 2.248-.311 3.458 1.798 4.011l-.346.83Zm2.006-13.832c-9.337-2.593-15.423-1.59-16.875 3.631a5.254 5.254 0 0 0 4.218 6.536 10.379 10.379 0 0 0 8.576-1.902l4.081-8.265Zm20.991 20.61 7.296-14.074c.548-.992 1-2.034 1.349-3.112 1.072-3.458 0-6.086-3.458-7.158a15.528 15.528 0 0 0-10.928 2.317l-9.094 17.532-.899-.277 11.861-22.857h1.037l-2.248 4.253a14.87 14.87 0 0 1 10.547-1.97 5.805 5.805 0 0 1 4.072 3.172 5.808 5.808 0 0 1-.06 5.161 20.84 20.84 0 0 1-1.349 3.181l-7.296 14.005-.83-.173Zm24.684 7.952-1.798-13.555-13.625 8.507-1.21-.415 14.662-9.095-1.695-13.313 1.038.346 1.521 12.518 12.588-7.885 1.175.38-13.59 8.473 1.971 14.316-1.037-.277Zm8.652 2.939 12.553-22.478h1.037l-12.725 22.789-.865-.311Zm15.665-29.013a1.004 1.004 0 0 1 1.21-.657 1.009 1.009 0 0 1 .551.541 1.007 1.007 0 0 1 .002.772.965.965 0 0 1-1.21.623.933.933 0 0 1-.553-1.28Zm1.627 20.542a27.386 27.386 0 0 0-1.314 2.905 9.01 9.01 0 0 0-.21 7.247 9.022 9.022 0 0 0 5.189 5.063c2.325.763 4.833.763 7.158 0 0 .312-.173.692-.276 1.003a11.688 11.688 0 0 1-7.228-.207 9.854 9.854 0 0 1-6.467-9.5 9.864 9.864 0 0 1 .934-3.952c2.525-7.158 9.648-12.898 16.945-10.374a6.918 6.918 0 0 1 4.91 9.06 12.27 12.27 0 0 1-2.835 4.495l-16.806-5.74Zm16.494 4.841a12.056 12.056 0 0 0 2.248-3.734 5.903 5.903 0 0 0-.327-4.96 5.91 5.91 0 0 0-3.996-2.96 12.205 12.205 0 0 0-13.832 5.983l15.907 5.671Zm13.55 19.403a10.948 10.948 0 0 1-5.014-.38c-3.458-1.21-4.219-3.458-3.182-6.155.378-.957.853-1.873 1.418-2.732l8.991-14.627-3.666-1.314.519-.83 3.666 1.314 3.458-5.257.83.277-3.286 5.29 8.369 3.01-.519.83-8.368-3.01-9.026 14.732a11.945 11.945 0 0 0-1.314 2.524c-.899 2.49 0 4.046 2.663 5.083 1.563.44 3.2.546 4.807.312l-.346.933Zm14.213 5.703 3.977-25.14.934.346-3.804 23.722 20.16-17.774 1.003.38-21.682 19.123-6.12 5.568c-3.458 3.215-6.294 4.08-9.13 3.043a5.812 5.812 0 0 1-3.008-2.525l.726-.657a5.257 5.257 0 0 0 2.663 2.317c2.524.934 5.014 0 8.265-2.939l6.016-5.464Zm8.232 9.685c2.663-.45 5.187-1.452 5.775-3.078a1.593 1.593 0 0 0-.326-1.793 1.6 1.6 0 0 0-.538-.351 1.518 1.518 0 0 1 1.832-.864c.899.311 1.176 1.348.761 2.524-.899 2.49-4.288 3.769-7.4 4.253l-.104-.691Zm29.397.548a11.278 11.278 0 0 0 6.19 5.36 6.252 6.252 0 0 0 8.334-3.458c.83-2.386 0-4.288-3.458-7.642-3.458-3.355-4.219-5.775-3.458-8.438a6.916 6.916 0 0 1 8.887-3.665 11.962 11.962 0 0 1 6.293 5.256l-.726.622a11.17 11.17 0 0 0-5.878-5.014 5.805 5.805 0 0 0-7.643 3.043c-.795 2.317-.276 4.288 3.113 7.573 3.388 3.285 4.46 5.74 3.458 8.576a7.166 7.166 0 0 1-3.928 3.967 7.153 7.153 0 0 1-5.582-.059 12.073 12.073 0 0 1-6.639-5.533l1.037-.588Zm31.843 13.56c-1.665.341-3.39.258-5.014-.242-3.458-1.072-4.357-3.147-3.458-6.052.362-.962.813-1.888 1.348-2.766l8.542-14.904-3.735-1.211.519-.829 3.7 1.21 3.112-5.395.865.277-3.147 5.394 8.472 2.767-.484.83-8.472-2.766-8.576 15.007c-.48.827-.885 1.695-1.21 2.594-.83 2.524 0 4.046 2.801 4.979 1.582.407 3.233.466 4.841.173l-.104.934Zm24.45 8.538a3.116 3.116 0 0 1-2.3-1.468 3.119 3.119 0 0 1-.259-2.716 10.376 10.376 0 0 1-8.368 1.211 6.126 6.126 0 0 1-4.83-5.211 6.127 6.127 0 0 1 .196-2.501c1.971-6.466 9.752-6.57 18.328-3.942l1.279-2.386c1.971-3.873 1.279-7.435-2.801-8.68a14.352 14.352 0 0 0-8.749.623v-1.072a14.457 14.457 0 0 1 8.957-.45c4.668 1.453 5.532 5.637 3.285 9.994l-6.052 11.723c-1.106 2.213-.38 3.458 1.695 4.08l-.381.795Zm2.282-13.832c-9.267-2.766-15.353-1.902-16.944 3.251a5.232 5.232 0 0 0 .553 4.234 5.213 5.213 0 0 0 3.528 2.405 10.368 10.368 0 0 0 8.61-1.694l4.253-8.196Zm10.684 17.015 2.179-25.313.968.242-2.11 23.93 18.881-19.158 1.003.311-20.299 20.748-5.705 5.983c-3.458 3.458-5.983 4.495-8.887 3.665a5.843 5.843 0 0 1-3.182-2.282l.692-.726a5.081 5.081 0 0 0 2.801 2.109c2.593.761 5.014-.345 8.057-3.458l5.602-6.051Zm31.403 9.027 10.374-22.235-3.458-.968.415-.865 3.458.934 2.559-5.602c2.075-4.392 4.91-5.879 7.504-5.222a6.09 6.09 0 0 1 3.458 2.456l-.623.691a5.355 5.355 0 0 0-3.147-2.247c-2.455-.623-4.633 1.141-6.328 4.702l-2.524 5.464 5.602 1.452-.45.865-5.532-1.452-10.374 22.269-.934-.242Zm40.145-5.118c-1.764 7.435-8.68 13.451-16.218 11.653a10.37 10.37 0 0 1-7.124-13.14c1.764-7.435 8.68-13.487 16.218-11.654a10.17 10.17 0 0 1 7.124 13.141Zm-22.443-1.28a9.35 9.35 0 0 0 .619 7.392 9.35 9.35 0 0 0 5.813 4.608c6.916 1.694 13.417-3.942 15.112-10.928a9.38 9.38 0 0 0-.617-7.406 9.382 9.382 0 0 0-5.815-4.628c-6.985-1.66-13.417 3.977-15.181 10.962h.069Zm42.633 18.813a11.86 11.86 0 0 1-7.193.76 9.853 9.853 0 0 1-7.227-12.621c1.556-7.435 7.884-14.075 15.457-12.449a10.124 10.124 0 0 1 6.916 4.91l-.588.83a9.19 9.19 0 0 0-6.535-4.841c-6.916-1.452-12.83 4.772-14.282 11.688a8.95 8.95 0 0 0 .708 7.223 8.967 8.967 0 0 0 5.828 4.327 11.51 11.51 0 0 0 7.123-.865l-.207 1.038Zm24.385 6.742 1.729-4.634a14.834 14.834 0 0 1-10.201 3.216c-4.253-.761-5.74-3.458-4.979-7.78.202-1.184.526-2.342.968-3.458l5.533-14.801.933.173-5.567 15.043a23.42 23.42 0 0 0-.968 3.25c-.623 3.458.553 6.086 4.218 6.709a15.632 15.632 0 0 0 10.582-3.458l6.916-18.501h.899l-9.025 24.206-1.038.035Zm12.446-1.868a11.483 11.483 0 0 0 7.089 4.115 6.302 6.302 0 0 0 4.802-.87 6.29 6.29 0 0 0 2.737-4.04c.346-2.49-.692-4.219-4.703-6.916s-5.222-4.876-4.807-7.677a6.917 6.917 0 0 1 8.023-5.256 11.898 11.898 0 0 1 7.158 3.977l-.588.76a11.102 11.102 0 0 0-6.708-3.838 5.81 5.81 0 0 0-6.916 4.426c-.346 2.421.553 4.288 4.46 6.916 3.908 2.628 5.464 4.841 5.049 7.781a7.197 7.197 0 0 1-3.118 4.631 7.186 7.186 0 0 1-5.492 1.005 12.1 12.1 0 0 1-7.539-4.219l.553-.795Zm26.35-6.364a19.714 19.714 0 0 0-.587 3.112 8.999 8.999 0 0 0 1.454 7.103 9 9 0 0 0 2.719 2.516 9.003 9.003 0 0 0 3.503 1.205 11.45 11.45 0 0 0 6.916-1.556v1.037a12.07 12.07 0 0 1-7.089 1.453 9.819 9.819 0 0 1-8.456-7.768 9.826 9.826 0 0 1 .019-4.059c.795-7.504 6.397-14.766 14.109-13.832a6.913 6.913 0 0 1 6.636 4.82c.297.933.392 1.919.28 2.892a13.217 13.217 0 0 1-1.764 5.048l-17.74-1.971Zm17.291.899a12.698 12.698 0 0 0 1.348-4.115 5.975 5.975 0 0 0-1.395-4.861 5.994 5.994 0 0 0-4.622-2.055 12.281 12.281 0 0 0-12.207 9.06l16.876 1.971Zm24.549 16.427.83-3.458a11.929 11.929 0 0 1-8.403 3.458c-5.809-.38-8.541-4.979-8.195-10.892.518-8.092 5.878-15.354 13.14-14.87a10.937 10.937 0 0 1 7.988 4.15l3.769-15.112 1.003-.277-9.164 37.07-.968-.069Zm5.083-20.506a10.365 10.365 0 0 0-7.573-4.288c-6.916-.449-11.722 6.674-12.172 13.832-.38 5.568 2.109 9.614 7.366 9.925a11.864 11.864 0 0 0 8.679-4.046l3.7-15.423Zm2.494 26.835c2.386-1.28 4.496-3.043 4.53-4.738a1.541 1.541 0 0 0-.364-1.224 1.546 1.546 0 0 0-1.157-.539 1.588 1.588 0 0 1 1.521-1.384c.934 0 1.522.934 1.487 2.144 0 2.663-2.904 4.945-5.705 6.363l-.312-.622Zm46.856-7.541a11.797 11.797 0 0 1-6.916 2.386 9.852 9.852 0 0 1-9.42-6.562 9.863 9.863 0 0 1-.54-4.02c-.172-7.607 4.427-15.492 12.173-15.699a10.374 10.374 0 0 1 7.849 3.181l-.415.968a9.237 9.237 0 0 0-7.469-3.216c-6.916.173-11.377 7.608-11.204 14.662a9.014 9.014 0 0 0 .47 3.686 9.015 9.015 0 0 0 4.949 5.327 9.024 9.024 0 0 0 3.641.739 11.587 11.587 0 0 0 6.709-2.49l.173 1.038Zm9.926 1.349 3.077-25.555.969-.415-.657 5.809c1.694-3.873 3.976-6.12 7.123-6.293a5.532 5.532 0 0 1 3.458.899l-.207 1.037a4.807 4.807 0 0 0-3.458-.933c-3.458.207-5.879 3.458-7.504 8.61l-1.971 16.806-.83.035Zm19.988-14.937c-.07 1.06-.07 2.122 0 3.182a8.97 8.97 0 0 0 .726 3.638 8.982 8.982 0 0 0 8.991 5.422 11.21 11.21 0 0 0 6.501-2.974v1.072a11.757 11.757 0 0 1-6.605 2.835 9.818 9.818 0 0 1-10.685-9.855c-.726-7.539 3.285-15.769 10.996-16.529a6.929 6.929 0 0 1 2.896.015 6.914 6.914 0 0 1 5.403 6.14 13.503 13.503 0 0 1-.691 5.291l-17.532 1.763Zm17.013-2.559c.399-1.416.562-2.888.484-4.357a5.945 5.945 0 0 0-4.72-5.386 5.97 5.97 0 0 0-2.542.026 12.212 12.212 0 0 0-10.097 11.342l16.875-1.625Zm27.733 11.307a3.083 3.083 0 0 1-3.624-1.428 3.076 3.076 0 0 1-.387-1.339 10.373 10.373 0 0 1-7.124 4.565 6.08 6.08 0 0 1-4.796-.928 6.078 6.078 0 0 1-2.569-4.155c-.899-6.709 6.12-10.029 15.007-11.204l.173-2.697c.208-4.323-1.936-7.297-6.155-6.916a14.282 14.282 0 0 0-7.677 4.218l-.346-1.037a14.318 14.318 0 0 1 7.954-4.115c4.841-.623 7.365 2.835 7.123 7.711l-.622 13.21c0 2.455 1.107 3.458 3.216 2.974l-.173 1.141Zm-3.458-13.486c-9.579 1.314-14.766 4.633-14.074 10.028a5.249 5.249 0 0 0 2.277 3.591 5.26 5.26 0 0 0 4.189.731 10.373 10.373 0 0 0 7.158-5.118l.45-9.232Zm22.442 9.58a10.787 10.787 0 0 1-4.564 2.04c-3.458.553-5.291-.83-5.775-3.838a16.833 16.833 0 0 1 0-3.078l.83-17.29-3.873.622v-.968l3.873-.623.311-6.224h.864l-.311 6.224 8.783-1.383v.934l-8.783 1.418-.795 17.29a14.439 14.439 0 0 0 0 2.835c.415 2.629 1.867 3.458 4.772 3.147a11.236 11.236 0 0 0 4.391-2.04l.277.934Zm8.051-33.474a1.003 1.003 0 0 1 .761-1.176 1.036 1.036 0 0 1 1.122.86 1.034 1.034 0 0 1-.776 1.18.999.999 0 0 1-1.107-.864Zm.243 32.99.172-25.763.934-.518-.207 26.107-.899.174Zm17.709-3.149-9.475-24.206h.968l8.783 22.373 8.473-25.659 1.002-.207-9.025 27.664-.726.035Zm16.248-17.081c.051 1.047.194 2.088.414 3.112a9.02 9.02 0 0 0 1.13 3.534 8.962 8.962 0 0 0 2.45 2.782c1 .748 2.15 1.279 3.36 1.561 1.22.282 2.48.308 3.71.077a11.224 11.224 0 0 0 6.12-3.701c0 .346.21.692.28 1.038a12.042 12.042 0 0 1-6.26 3.458 9.8 9.8 0 0 1-4.05-.045 9.823 9.823 0 0 1-3.7-1.679 9.818 9.818 0 0 1-2.69-3.028 9.771 9.771 0 0 1-1.248-3.859c-1.591-7.434 1.488-16.045 9.098-17.67a6.934 6.934 0 0 1 5.6.612 7.04 7.04 0 0 1 2.13 1.938c.56.788.96 1.687 1.15 2.637.4 1.765.4 3.595 0 5.36l-17.494 3.873Zm16.634-4.495c.24-1.431.24-2.893 0-4.323a5.955 5.955 0 0 0-.98-2.355 5.825 5.825 0 0 0-1.88-1.724 5.928 5.928 0 0 0-4.96-.451 12.17 12.17 0 0 0-6.53 4.662 12.172 12.172 0 0 0-2.215 7.718l16.565-3.527Zm41.78 5.53c-.43.191-.9.28-1.37.26-.48-.02-.94-.149-1.35-.376a3.057 3.057 0 0 1-1.57-2.236 10.244 10.244 0 0 1-2.76 3.337c-1.14.905-2.46 1.56-3.88 1.919a6.142 6.142 0 0 1-4.89-.463 6.186 6.186 0 0 1-1.9-1.635 6.316 6.316 0 0 1-1.09-2.259c-1.52-6.57 5.12-10.581 13.83-12.621v-2.698c-.21-4.357-2.63-6.916-6.91-6.086a14.232 14.232 0 0 0-7.27 4.911l-.41-.969a14.256 14.256 0 0 1 7.5-4.876c4.78-1.141 7.61 2.075 7.85 6.917l.69 13.209c0 2.455 1.46 3.458 3.46 2.628l.07 1.038Zm-4.91-13.037c-9.44 2.248-14.25 6.051-13.04 11.342.18.717.51 1.388.96 1.97a5.34 5.34 0 0 0 1.68 1.407c.66.346 1.37.55 2.11.6.74.05 1.48-.056 2.17-.311a10.372 10.372 0 0 0 3.95-2.17 10.429 10.429 0 0 0 2.66-3.64l-.49-9.198Zm28.36 7.263-.87-15.837c-.05-1.163-.2-2.32-.45-3.458-.83-3.458-2.94-5.326-6.5-4.461a15.477 15.477 0 0 0-8.26 7.538l1.1 19.746-.93.207-1.42-25.727.9-.554.28 4.945a14.72 14.72 0 0 1 8.05-6.916c4.19-1.037 6.71.934 7.71 5.118.25 1.139.4 2.295.45 3.458l.83 15.803-.89.138Zm27.35-6.258-.17-3.458a11.865 11.865 0 0 1-6.92 5.671c-5.7 1.28-9.61-2.386-10.89-8.161-1.8-7.884 1.31-16.321 8.44-17.947 1.51-.346 3.08-.368 4.6-.064 1.52.304 2.95.927 4.21 1.828l-.58-15.561.86-.519 1.56 38.038-1.11.173Zm-.83-21.163c-1.2-.942-2.6-1.607-4.08-1.948-1.49-.34-3.04-.348-4.53-.023-6.71 1.487-9.41 9.683-7.81 16.771 1.21 5.464 4.7 8.645 9.85 7.47a12.082 12.082 0 0 0 7.23-6.329l-.66-15.941Zm26.18 28.876-.38-38.868.89-.519v4.046a12.096 12.096 0 0 1 7.2-5.325c5.74-1.107 9.54 2.662 10.65 8.472 1.52 7.919-1.84 16.322-8.99 17.705-1.51.303-3.06.281-4.56-.065-1.5-.346-2.9-1.008-4.12-1.941v16.322l-.69.173Zm.72-17.636a10.133 10.133 0 0 0 8.44 2.213c6.74-1.314 9.68-9.406 8.33-16.529-1.07-5.498-4.46-8.784-9.61-7.781a11.904 11.904 0 0 0-4.31 2.272 11.803 11.803 0 0 0-3.02 3.814l.17 16.011Zm26.97-.867.31-25.763.93-.484v5.844c1.28-4.011 3.46-6.501 6.4-6.916a5.363 5.363 0 0 1 3.46.519v1.072a4.877 4.877 0 0 0-3.46-.588c-3.46.553-5.5 4.046-6.53 9.337v16.944l-1.11.035Zm39.63-20.748c1.07 7.573-3.15 15.699-10.82 16.806-1.4.152-2.8.022-4.14-.384a10.325 10.325 0 0 1-6.24-5.225 10.383 10.383 0 0 1-1.11-4.005c-1.07-7.573 3.15-15.699 10.83-16.806 1.39-.152 2.8-.021 4.13.384a10.337 10.337 0 0 1 6.24 5.225 10.383 10.383 0 0 1 1.11 4.005Zm-21.23 6.916c.06 1.272.39 2.518.96 3.66a9.172 9.172 0 0 0 2.33 2.982c.97.825 2.1 1.444 3.31 1.818 1.22.374 2.5.496 3.77.358 7.12-1.038 11.03-8.611 10.03-15.734a9.504 9.504 0 0 0-.96-3.66 9.358 9.358 0 0 0-5.65-4.801 9.388 9.388 0 0 0-3.77-.357c-7.26 1.037-11.16 8.818-10.02 15.734Zm46.68 5.015.28-3.458a11.942 11.942 0 0 1-7.75 4.772c-5.81.553-9.23-3.458-9.82-9.44-.8-8.058 3.46-16.08 10.62-16.772a10.898 10.898 0 0 1 8.4 2.594l1.28-15.527.97-.45-3.18 38.039-.8.242Zm1.76-21.094a10.34 10.34 0 0 0-3.81-2.431 10.38 10.38 0 0 0-4.49-.577c-6.91.657-10.54 8.472-9.82 15.699.52 5.533 3.46 9.129 8.86 8.645 1.61-.311 3.15-.95 4.51-1.878a11.932 11.932 0 0 0 3.4-3.516l1.35-15.942Zm25.49 19.712.65-4.911a14.857 14.857 0 0 1-9.23 5.395c-4.32.207-6.4-2.213-6.6-6.536-.02-1.156.05-2.312.2-3.458l2.18-15.664h.94l-2.18 15.733a25 25 0 0 0-.21 3.459c0 3.665 1.9 5.809 5.57 5.636 3.8-.696 7.21-2.794 9.54-5.879l2.66-19.537h.94l-3.46 25.554-1 .208Zm28.15-2.181a11.57 11.57 0 0 1-6.92 2.075 9.81 9.81 0 0 1-3.95-.937 9.936 9.936 0 0 1-3.23-2.459 9.735 9.735 0 0 1-1.95-3.557 9.705 9.705 0 0 1-.34-4.044c0-7.573 5.05-15.284 12.79-15.146a10.1 10.1 0 0 1 4.23.887c1.34.596 2.52 1.474 3.48 2.571l-.45.934a9.241 9.241 0 0 0-7.33-3.458c-6.91 0-11.69 6.916-11.79 14.178a9.031 9.031 0 0 0 .31 3.691 9.015 9.015 0 0 0 1.77 3.254c.81.95 1.81 1.721 2.93 2.264 1.13.542 2.35.845 3.6.888 2.48.042 4.91-.722 6.92-2.179l-.07 1.038Zm19.81 2.006a10.629 10.629 0 0 1-4.94.934c-3.46-.277-4.95-2.041-4.7-5.084.13-1.019.35-2.026.65-3.008l4.81-16.46-3.87-.311.27-.934 3.88.311 1.79-5.982h.87l-1.76 5.982 8.85.692-.28.933-8.89-.726-4.8 16.737c-.29.912-.49 1.85-.59 2.801-.21 2.628.93 3.942 3.91 4.184 1.61.039 3.22-.28 4.7-.933l.1.864Zm7.75 1.834 7.74-24.552 1.04-.208-7.85 24.863-.93-.103Zm9.47-31.607a.954.954 0 0 1 .36-.666c.1-.08.22-.138.35-.17a.935.935 0 0 1 1.13 1.148 1.12 1.12 0 0 1-.1.36.947.947 0 0 1-.24.294.933.933 0 0 1-.7.21.989.989 0 0 1-.36-.148.96.96 0 0 1-.28-.275.819.819 0 0 1-.15-.361c-.03-.13-.03-.262-.01-.392Zm8.06 34.131-.28-25.866.97.173.24 24.206 17.02-20.99h1.03l-18.25 22.546-.73-.069Zm21.95-9.752c-.42.971-.75 1.978-1 3.008a8.996 8.996 0 0 0-.5 3.673 8.9 8.9 0 0 0 1.03 3.56 8.91 8.91 0 0 0 2.37 2.845 9.055 9.055 0 0 0 3.32 1.645c2.39.557 4.89.314 7.13-.692-.05.35-.12.696-.21 1.038-2.28.933-4.8 1.127-7.19.553a9.785 9.785 0 0 1-3.66-1.767 9.719 9.719 0 0 1-2.63-3.099 9.72 9.72 0 0 1-1.15-3.898 9.856 9.856 0 0 1 .52-4.031c1.8-7.365 8.27-13.832 15.8-12.033a6.93 6.93 0 0 1 4.81 2.956c.55.802.92 1.711 1.09 2.668.18.956.15 1.938-.09 2.882a12.42 12.42 0 0 1-2.35 4.772l-17.29-4.08Zm16.91 3.078c.85-1.197 1.48-2.53 1.87-3.943a5.928 5.928 0 0 0-.87-4.882 5.856 5.856 0 0 0-1.85-1.738 5.945 5.945 0 0 0-2.4-.814c-2.72-.433-5.51.065-7.91 1.415a12.22 12.22 0 0 0-5.33 6.019l16.49 3.943Z" fill="#E07207"/></svg>