<svg width="259" height="259" fill="none" xmlns="http://www.w3.org/2000/svg"><mask id="a" style="mask-type:alpha" maskUnits="userSpaceOnUse" x="0" y="0" width="259" height="259"><ellipse cx="129.406" cy="129.715" rx="129.352" ry="128.86" transform="rotate(-180 129.406 129.715)" fill="#C4C4C4"/></mask><g mask="url(#a)" stroke="#fff" stroke-miterlimit="10"><path d="M129.977 463.165V-5.542M170.82 459.61 89.121-1.987m121.305 451.019L49.515 8.59m198.063 423.182L12.361 25.851M281.18 408.343-21.243 49.28m331.411 330.181-360.4-301.3m383.916 267.823L-73.749 111.639m424.761 197.329L-91.069 148.654M361.629 269.51l-463.317-81.396m466.883 40.688h-470.452m466.886-40.688-463.317 81.396m452.7-120.856L-91.069 308.968m424.753-197.329L-73.749 345.984M310.168 78.16l-360.4 301.301M281.18 49.28-21.243 408.344M247.578 25.851 12.361 431.772M210.426 8.59 49.515 449.033M170.82-1.987 89.121 459.61"/></g></svg>