<svg width="259" height="259" fill="none" xmlns="http://www.w3.org/2000/svg"><mask id="a" style="mask-type:alpha" maskUnits="userSpaceOnUse" x="0" y="0" width="259" height="259"><ellipse cx="129.543" cy="129.717" rx="129.352" ry="128.86" transform="rotate(-180 129.543 129.717)" fill="#C4C4C4"/></mask><g mask="url(#a)" stroke="#fff" stroke-miterlimit="10"><path d="M-37.89 130.426c18.022 37.512 30.77 64.729 50.2 64.394 10.335-.984 16.3-4.459 22.314-5.256 6.024-1.093 12.088.453 22.64 2.303 12.678 1.624 18.623-1.417 31.43-17.57 17.048-22.492 22.717-31.114 40.356-35.8 17.639-4.685 23.339-12.796 40.357-35.918 11.999-15.61 18.978-19.834 31.43-17.59 10.542 2.363 16.615 4.135 22.639 2.954 6.014-.847 11.989-4.637 22.325-6.074 19.401-1.043 32.157 27.709 50.2 64.69"/><path d="M-37.89 149.059c18.022 37.168 30.77 62.298 50.2 62.465 20.67-3.169 23.86-7.422 44.954-2.736 12.678 1.132 18.623-1.615 31.43-17.009 17.048-21.468 22.717-30.357 40.356-34.648 17.659-4.085 23.339-11.704 40.357-35.023 11.999-15.808 18.978-20.099 31.43-17.048 10.542 3.041 16.615 5.079 22.639 3.849 6.014-.906 11.989-5.089 22.325-7.117 19.401-2.097 32.157 27.955 50.2 63.42"/><path d="M-37.89 167.683c18.022 35.839 30.77 58.478 50.2 58.852 20.67-2.559 23.86-6.388 44.954-2.48 12.678.797 18.623-1.526 31.43-15.858 17.048-20.04 22.717-29.037 40.356-32.433 17.659-3.042 23.339-9.843 40.357-33.044 11.999-15.749 18.978-19.952 31.43-15.936 10.542 3.849 16.615 6.182 22.639 4.922 6.014-.985 11.989-5.542 22.325-8.278 19.401-3.445 32.157 27.492 50.2 60.467"/><path d="M-37.89 186.296c18.022 33.546 30.77 53.262 50.2 53.557 20.67-2.126 23.86-5.522 44.954-2.195 12.678.66 18.623-1.142 31.43-14.125 17.048-18.2 22.717-27.118 40.356-29.126 17.659-1.516 23.339-7.431 40.357-30.002 11.999-15.385 18.978-19.391 31.43-14.233 10.542 4.784 16.615 7.422 22.639 6.103 6.014-.985 11.989-5.995 22.325-9.568 19.401-5.089 32.157 26.331 50.2 55.84"/><path d="M-37.89 204.9c18.022 30.278 30.77 46.657 50.2 46.588 20.67-1.91 23.86-4.833 44.954-1.88 12.678.679 18.623-.463 31.43-11.812 17.048-15.936 22.717-24.608 40.356-24.746 17.659.512 23.338-4.292 40.357-25.878 11.999-14.765 18.978-18.407 31.43-11.949 21.084 13.426 24.273 7.303 44.954-3.514 19.401-7.019 32.157 24.46 50.2 49.521"/><path d="M-37.89 223.494c18.022 26.025 30.77 38.664 50.2 37.936 20.67-1.88 23.86-4.312 44.954-1.526 12.678.876 18.623.502 31.43-8.928 17.048-13.288 22.717-21.547 40.356-19.293 17.659 3.032 23.338-.492 40.357-20.67 11.999-13.869 18.978-17.029 31.43-9.095 21.084 15.611 24.273 9.252 44.954-3.534 19.401-9.233 32.157 21.891 50.2 41.538"/><path d="M-37.89 242.087c18.022 20.799 30.77 29.284 50.2 27.561 20.67-2.047 23.86-3.937 44.954-1.142 12.678 1.241 18.623 1.772 31.43-5.453 17.048-10.207 22.717-17.895 40.356-12.796 17.659 6.044 23.338 3.987 40.357-14.4 11.999-12.708 18.978-15.228 31.43-5.66 21.084 18.003 24.273 11.447 44.954-3.514 19.401-11.743 32.157 18.613 50.2 31.862"/><path d="M-37.89 260.652c18.022 14.607 30.77 18.505 50.2 15.591 20.67-2.411 23.86-3.779 44.954-.728 12.678 1.792 18.623 3.327 31.43-1.398 17.048-6.732 22.717-13.662 40.356-5.167 17.659 9.557 23.338 9.124 40.357-7.048 11.999-11.271 18.978-13.003 31.43-1.644 21.084 20.592 24.273 13.869 44.954-3.455 19.401-14.538 32.157 14.627 50.2 20.513M-37.89-17.173c18.022 5.906 30.77 35.052 50.2 20.504C32.98-13.984 36.17-20.716 57.264-.124 69.942 11.45 75.887 10.28 88.694-1.758c17.048-16.163 22.717-16.616 40.356-7.058 17.659 8.495 23.338 1.575 40.357-5.158 11.999-4.479 18.978-3.17 31.43-1.407 21.084 3.06 24.273 1.693 44.954-.719 19.401-2.953 32.157.984 50.2 15.592"/><path d="M-37.89 1.53c18.022 13.258 30.77 43.605 50.2 31.861 20.67-14.951 23.86-21.507 44.954-3.504 12.678 9.716 18.623 7.875 31.43-5.66C105.741 5.85 111.41 3.773 129.05 9.827c17.659 5.128 23.338-2.56 40.357-12.796 11.999-6.831 18.978-6.713 31.43-5.453 21.084 2.815 24.273.895 44.954-1.152 19.401-1.673 32.157 6.802 50.2 27.561"/><path d="M-37.89 20.232c18.022 19.686 30.77 50.77 50.2 41.538 20.67-12.796 23.86-19.145 44.954-3.534 12.678 8.042 18.623 5.69 31.43-9.095 17.048-20.188 22.717-23.712 40.356-20.67 17.659 2.253 23.338-6.015 40.357-19.293C181.406.318 188.385-.666 200.837.25c21.084 2.785 24.273.354 44.954-1.526 19.401-.728 32.157 11.91 50.2 37.936"/><path d="M-37.89 38.914c18.022 25.07 30.77 56.539 50.2 49.53 20.67-10.827 23.86-16.94 44.954-3.513 12.678 6.526 18.623 3.77 31.43-11.96 17.048-21.576 22.717-26.38 40.356-25.878 17.659-.118 23.338-8.8 40.357-24.746 11.999-10.709 18.978-12.54 31.43-11.811 21.084 2.953 24.273 0 44.954-1.88 19.401-.07 32.157 16.31 50.2 46.587"/><path d="M-37.89 57.596c18.022 29.53 30.77 60.92 50.2 55.841 10.335-3.583 16.3-8.554 22.314-9.568 6.024-1.319 12.088 1.319 22.64 6.103 12.678 5.188 18.623 2.136 31.43-14.233 17.048-22.57 22.717-28.486 40.356-30.002 17.659-1.969 23.338-10.926 40.357-29.126 11.999-12.245 18.978-14.834 31.43-14.125 21.084 3.327 24.273-.07 44.954-2.205 19.401.305 32.157 20.011 50.2 53.567"/><path d="M-37.89 76.269c18.022 32.974 30.77 63.912 50.2 60.466 10.335-2.736 16.3-7.313 22.314-8.278 6.024-1.279 12.088 1.054 22.64 4.922 12.678 4.026 18.623.807 31.43-15.936 17.048-23.142 22.717-29.992 40.356-33.044 17.659-3.396 23.338-12.383 40.357-32.423 11.999-13.505 18.978-16.734 31.43-15.858 21.084 3.938 24.273.07 44.954-2.48 19.401.374 32.157 23.003 50.2 58.842"/><path d="M-37.89 94.922c18.022 35.435 30.77 65.516 50.2 63.419 10.335-1.968 16.3-6.201 22.314-7.116 6.024-1.221 12.088.817 22.64 3.848 12.678 3.042 18.623-.236 31.43-17.048 17.048-23.309 22.717-30.927 40.356-35.022 17.659-4.282 23.338-13.17 40.357-34.648 11.999-14.49 18.978-18.18 31.43-17.01 21.084 4.686 24.273.444 44.954-2.726 19.401.167 32.157 25.297 50.2 62.455"/><path d="M-37.89 113.575c18.022 36.98 30.77 65.732 50.2 64.689 10.335-1.437 16.3-5.227 22.314-6.083 6.024-1.162 12.088.61 22.64 2.953 12.678 2.205 18.623-.984 31.43-17.59 17.048-23.072 22.717-31.291 40.356-35.918 17.639-4.626 23.339-13.308 40.357-35.8 11.999-15.207 18.978-19.243 31.43-17.58 10.542 1.86 16.615 3.406 22.639 2.304 6.014-.788 11.989-4.233 22.325-5.256 19.401-.335 32.157 26.891 50.2 64.394"/></g></svg>