<svg width="445" height="541" viewBox="0 0 445 541" fill="none" xmlns="http://www.w3.org/2000/svg">
<mask id="mask0_80_1196" style="mask-type:alpha" maskUnits="userSpaceOnUse" x="0" y="0" width="543" height="541">
<ellipse cx="271.854" cy="270.116" rx="271.147" ry="270.116" fill="#C4C4C4"/>
</mask>
<g mask="url(#mask0_80_1196)">
<path d="M272.016 337.661C308.661 337.661 338.367 307.955 338.367 271.31C338.367 234.665 308.661 204.958 272.016 204.958C235.371 204.958 205.664 234.665 205.664 271.31C205.664 307.955 235.371 337.661 272.016 337.661Z" stroke="white" stroke-miterlimit="10"/>
<path d="M272.011 347.614C314.153 347.614 348.316 313.451 348.316 271.31C348.316 229.168 314.153 195.005 272.011 195.005C229.87 195.005 195.707 229.168 195.707 271.31C195.707 313.451 229.87 347.614 272.011 347.614Z" stroke="white" stroke-miterlimit="10"/>
<path d="M272.013 359.054C320.472 359.054 359.756 319.77 359.756 271.311C359.756 222.851 320.472 183.567 272.013 183.567C223.554 183.567 184.27 222.851 184.27 271.311C184.27 319.77 223.554 359.054 272.013 359.054Z" stroke="white" stroke-miterlimit="10"/>
<path d="M272.017 372.218C327.747 372.218 372.924 327.04 372.924 271.31C372.924 215.581 327.747 170.403 272.017 170.403C216.287 170.403 171.109 215.581 171.109 271.31C171.109 327.04 216.287 372.218 272.017 372.218Z" stroke="white" stroke-miterlimit="10"/>
<path d="M272.008 387.372C336.107 387.372 388.07 335.409 388.07 271.309C388.07 207.21 336.107 155.247 272.008 155.247C207.908 155.247 155.945 207.21 155.945 271.309C155.945 335.409 207.908 387.372 272.008 387.372Z" stroke="white" stroke-miterlimit="10"/>
<path d="M272.017 404.757C345.717 404.757 405.463 345.011 405.463 271.31C405.463 197.61 345.717 137.864 272.017 137.864C198.316 137.864 138.57 197.61 138.57 271.31C138.57 345.011 198.316 404.757 272.017 404.757Z" stroke="white" stroke-miterlimit="10"/>
<path d="M272.012 424.795C356.779 424.795 425.497 356.077 425.497 271.31C425.497 186.543 356.779 117.826 272.012 117.826C187.245 117.826 118.527 186.543 118.527 271.31C118.527 356.077 187.245 424.795 272.012 424.795Z" stroke="white" stroke-miterlimit="10"/>
<path d="M272.011 447.806C369.487 447.806 448.506 368.786 448.506 271.31C448.506 173.835 369.487 94.8149 272.011 94.8149C174.535 94.8149 95.5156 173.835 95.5156 271.31C95.5156 368.786 174.535 447.806 272.011 447.806Z" stroke="white" stroke-miterlimit="10"/>
<path d="M272.01 474.292C384.115 474.292 474.993 383.414 474.993 271.31C474.993 159.205 384.115 68.3267 272.01 68.3267C159.906 68.3267 69.0273 159.205 69.0273 271.31C69.0273 383.414 159.906 474.292 272.01 474.292Z" stroke="white" stroke-miterlimit="10"/>
<path d="M272.019 504.735C400.936 504.735 505.444 400.227 505.444 271.31C505.444 142.393 400.936 37.8848 272.019 37.8848C143.102 37.8848 38.5938 142.393 38.5938 271.31C38.5938 400.227 143.102 504.735 272.019 504.735Z" stroke="white" stroke-miterlimit="10"/>
<path d="M272.01 539.742C420.261 539.742 540.442 419.561 540.442 271.31C540.442 123.059 420.261 2.87793 272.01 2.87793C123.759 2.87793 3.57812 123.059 3.57812 271.31C3.57812 419.561 123.759 539.742 272.01 539.742Z" stroke="white" stroke-miterlimit="10"/>
<path d="M272.011 580.004C442.498 580.004 580.705 441.797 580.705 271.31C580.705 100.823 442.498 -37.3843 272.011 -37.3843C101.524 -37.3843 -36.6836 100.823 -36.6836 271.31C-36.6836 441.797 101.524 580.004 272.011 580.004Z" stroke="white" stroke-miterlimit="10"/>
<path d="M272.012 626.317C468.077 626.317 627.019 467.375 627.019 271.309C627.019 75.2441 468.077 -83.6982 272.012 -83.6982C75.9462 -83.6982 -82.9961 75.2441 -82.9961 271.309C-82.9961 467.375 75.9462 626.317 272.012 626.317Z" stroke="white" stroke-miterlimit="10"/>
<path d="M272.014 679.558C497.483 679.558 680.262 496.779 680.262 271.31C680.262 45.8405 497.483 -136.938 272.014 -136.938C46.5446 -136.938 -136.234 45.8405 -136.234 271.31C-136.234 496.779 46.5446 679.558 272.014 679.558Z" stroke="white" stroke-miterlimit="10"/>
<path d="M272.009 740.788C531.294 740.788 741.486 530.596 741.486 271.31C741.486 12.0252 531.294 -198.167 272.009 -198.167C12.7234 -198.167 -197.469 12.0252 -197.469 271.31C-197.469 530.596 12.7234 740.788 272.009 740.788Z" stroke="white" stroke-miterlimit="10"/>
<path d="M272.014 811.226C570.202 811.226 811.93 569.498 811.93 271.31C811.93 -26.8777 570.202 -268.606 272.014 -268.606C-26.1736 -268.606 -267.902 -26.8777 -267.902 271.31C-267.902 569.498 -26.1736 811.226 272.014 811.226Z" stroke="white" stroke-miterlimit="10"/>
</g>
</svg>
