<svg width="543" height="542" viewBox="0 0 543 542" fill="none" xmlns="http://www.w3.org/2000/svg">
<mask id="mask0_80_1176" style="mask-type:alpha" maskUnits="userSpaceOnUse" x="0" y="0" width="543" height="542">
<ellipse cx="271.666" cy="270.908" rx="271.146" ry="270.115" transform="rotate(-180 271.666 270.908)" fill="#C4C4C4"/>
</mask>
<g mask="url(#mask0_80_1176)">
<path d="M-79.3086 272.394C-41.5291 351.028 -14.809 408.079 25.9211 407.377C47.586 405.314 60.0898 398.03 72.6968 396.359C85.3243 394.069 98.0344 397.308 120.153 401.187C146.729 404.592 159.191 398.216 186.035 364.357C221.772 317.21 233.657 299.135 270.632 289.314C307.606 279.492 319.553 262.49 355.228 214.023C380.38 181.299 395.009 172.447 421.11 177.151C443.208 182.103 455.939 185.817 468.566 183.341C481.173 181.567 493.698 173.623 515.363 170.61C556.031 168.423 582.772 228.693 620.592 306.212" stroke="white" stroke-miterlimit="10"/>
<path d="M-79.3086 311.453C-41.5291 389.364 -14.809 442.041 25.9211 442.392C69.2509 435.748 75.9362 426.835 120.153 436.656C146.729 439.029 159.191 433.272 186.035 401.002C221.772 356 233.657 337.369 270.632 328.373C307.648 319.81 319.553 303.84 355.228 254.959C380.38 221.822 395.009 212.826 421.11 219.222C443.208 225.598 455.939 229.869 468.566 227.29C481.173 225.392 493.698 216.623 515.363 212.372C556.031 207.977 582.772 270.971 620.592 345.312" stroke="white" stroke-miterlimit="10"/>
<path d="M-79.3086 350.492C-41.5291 425.618 -14.809 473.074 25.9211 473.858C69.2509 468.494 75.9362 460.467 120.153 468.659C146.729 470.33 159.191 465.46 186.035 435.418C221.772 393.409 233.657 374.55 270.632 367.432C307.648 361.056 319.553 346.799 355.228 298.166C380.38 265.153 395.009 256.342 421.11 264.761C443.208 272.828 455.939 277.718 468.566 275.077C481.173 273.014 493.698 263.461 515.363 257.725C556.031 250.503 582.772 315.354 620.592 384.475" stroke="white" stroke-miterlimit="10"/>
<path d="M-79.3086 389.51C-41.5291 459.828 -14.809 501.156 25.9211 501.775C69.2509 497.318 75.9362 490.2 120.153 497.174C146.729 498.556 159.191 494.78 186.035 467.565C221.772 429.414 233.657 410.721 270.632 406.511C307.648 403.334 319.553 390.933 355.228 343.621C380.38 311.371 395.009 302.974 421.11 313.785C443.208 323.813 455.939 329.343 468.566 326.578C481.173 324.515 493.698 314.012 515.363 306.523C556.031 295.855 582.772 361.717 620.592 423.575" stroke="white" stroke-miterlimit="10"/>
<path d="M-79.3086 428.506C-41.5291 491.974 -14.809 526.308 25.9211 526.164C69.2509 522.161 75.9362 516.033 120.153 522.223C146.729 523.646 159.191 521.253 186.035 497.463C221.772 464.057 233.657 445.88 270.632 445.591C307.648 446.664 319.553 436.595 355.228 391.346C380.38 360.396 395.009 352.762 421.11 366.297C465.306 394.441 471.992 381.607 515.342 358.931C556.01 344.219 582.751 410.205 620.572 462.737" stroke="white" stroke-miterlimit="10"/>
<path d="M-79.3086 467.483C-41.5291 522.037 -14.809 548.53 25.9211 547.004C69.2509 543.063 75.9362 537.966 120.153 543.805C146.729 545.642 159.191 544.858 186.035 525.091C221.772 497.236 233.657 479.925 270.632 484.65C307.648 491.005 319.553 483.618 355.228 441.32C380.38 412.248 395.009 405.624 421.11 422.255C465.306 454.979 471.992 441.65 515.342 414.847C556.01 395.493 582.751 460.736 620.572 501.92" stroke="white" stroke-miterlimit="10"/>
<path d="M-79.3086 506.458C-41.5291 550.056 -14.809 567.842 25.9211 564.231C69.2509 559.94 75.9362 555.978 120.153 561.838C146.729 564.438 159.191 565.552 186.035 550.407C221.772 529.011 233.657 512.896 270.632 523.584C307.648 536.253 319.553 531.94 355.228 493.397C380.38 466.76 395.009 461.478 421.11 481.533C465.306 519.272 471.992 505.53 515.342 474.167C556.01 449.552 582.751 513.185 620.572 540.957" stroke="white" stroke-miterlimit="10"/>
<path d="M-79.3086 545.373C-41.5291 575.993 -14.809 584.164 25.9211 578.056C69.2509 573.001 75.9362 570.133 120.153 576.529C146.729 580.285 159.191 583.504 186.035 573.6C221.772 559.487 233.657 544.961 270.632 562.767C307.648 582.802 319.553 581.894 355.228 547.994C380.38 524.369 395.009 520.737 421.11 544.548C465.306 587.713 471.992 573.62 515.342 537.306C556.01 506.83 582.751 567.967 620.572 580.306" stroke="white" stroke-miterlimit="10"/>
<path d="M-79.3086 -37.001C-41.5291 -24.621 -14.809 36.4741 25.9211 5.97815C69.2509 -30.3158 75.9362 -44.4289 120.153 -1.26414C146.729 23.0006 159.191 20.5453 186.035 -4.68921C221.772 -38.569 233.657 -39.5183 270.632 -19.4834C307.648 -1.67685 319.553 -16.182 355.228 -30.2952C380.38 -39.6833 395.009 -36.9391 421.11 -33.2457C465.306 -26.8288 471.992 -29.6967 515.342 -34.7519C556.01 -40.9419 582.751 -32.6886 620.572 -2.06887" stroke="white" stroke-miterlimit="10"/>
<path d="M-79.3086 2.20165C-41.5291 29.9947 -14.809 93.607 25.9211 68.9915C69.2509 37.6496 75.9362 23.9078 120.153 61.6461C146.729 82.0111 159.191 78.1527 186.035 49.782C221.772 11.2597 233.657 6.90602 270.632 19.5955C307.648 30.3454 319.553 14.2308 355.228 -7.22776C380.38 -21.5472 395.009 -21.2996 421.11 -18.6585C465.306 -12.7574 471.992 -16.7809 515.342 -21.0726C556.01 -24.5803 582.751 -6.81502 620.572 36.7005" stroke="white" stroke-miterlimit="10"/>
<path d="M-79.3086 41.4058C-41.5291 82.6723 -14.809 147.832 25.9211 128.478C69.2509 101.655 75.9362 88.3465 120.153 121.071C146.729 137.928 159.191 132.997 186.035 102.006C221.772 59.6869 233.657 52.3002 270.632 58.6758C307.648 63.4009 319.553 46.069 355.228 18.2347C380.38 -0.335254 395.009 -2.3986 421.11 -0.479703C465.306 5.35951 471.992 0.26312 515.342 -3.67783C556.01 -5.2047 582.751 21.2884 620.572 75.8427" stroke="white" stroke-miterlimit="10"/>
<path d="M-79.3086 80.5669C-41.5291 133.12 -14.809 199.084 25.9211 184.393C69.2509 161.697 75.9362 148.884 120.153 177.027C146.729 190.707 159.191 184.93 186.035 151.958C221.772 106.73 233.657 96.6608 270.632 97.7131C307.648 97.4655 319.553 79.2669 355.228 45.841C380.38 23.3921 395.009 19.5543 421.11 21.0811C465.306 27.2711 471.992 21.0811 515.342 17.1401C556.01 16.9957 582.751 51.3295 620.572 114.797" stroke="white" stroke-miterlimit="10"/>
<path d="M-79.3086 119.73C-41.5291 181.629 -14.809 247.429 25.9211 236.782C47.586 229.272 60.0898 218.852 72.6968 216.727C85.3243 213.962 98.0344 219.491 120.153 229.519C146.729 240.393 159.191 233.997 186.035 199.683C221.772 152.371 233.657 139.971 270.632 136.793C307.648 132.667 319.553 113.89 355.228 75.7394C380.38 50.0717 395.009 44.6452 421.11 46.1307C465.306 53.1048 471.992 45.9862 515.342 41.5088C556.01 42.1484 582.751 83.4563 620.572 153.795" stroke="white" stroke-miterlimit="10"/>
<path d="M-79.3086 158.87C-41.5291 227.992 -14.809 292.842 25.9211 285.621C47.586 279.885 60.0898 270.29 72.6968 268.268C85.3243 265.586 98.0344 270.476 120.153 278.585C146.729 287.024 159.191 280.277 186.035 245.179C221.772 196.671 233.657 182.31 270.632 175.914C307.648 168.795 319.553 149.957 355.228 107.948C380.38 79.6388 395.009 72.8711 421.11 74.7074C465.306 82.9607 471.992 74.8518 515.342 69.5078C556.01 70.2919 582.751 117.728 620.572 192.854" stroke="white" stroke-miterlimit="10"/>
<path d="M-79.3086 197.97C-41.5291 272.25 -14.809 335.305 25.9211 330.911C47.586 326.784 60.0898 317.912 72.6968 315.993C85.3243 313.434 98.0344 317.705 120.153 324.06C146.729 330.436 159.191 323.565 186.035 288.324C221.772 239.464 233.657 223.494 270.632 214.91C307.648 205.935 319.553 187.303 355.228 142.281C380.38 111.909 395.009 104.172 421.11 106.627C465.306 116.448 471.992 107.556 515.342 100.912C556.01 101.262 582.751 153.939 620.572 231.83" stroke="white" stroke-miterlimit="10"/>
<path d="M-79.3086 237.071C-41.5291 314.59 -14.809 374.86 25.9211 372.673C47.586 369.66 60.0898 361.716 72.6968 359.921C85.3243 357.487 98.0344 361.201 120.153 366.111C146.729 370.733 159.191 364.048 186.035 329.24C221.772 280.875 233.657 263.647 270.632 253.949C307.606 244.251 319.553 226.053 355.228 178.906C380.38 147.027 395.009 138.568 421.11 142.055C443.208 145.954 455.939 149.194 468.566 146.883C481.173 145.232 493.698 138.011 515.363 135.865C556.031 135.163 582.772 192.235 620.592 270.848" stroke="white" stroke-miterlimit="10"/>
</g>
</svg>
