<svg width="259" height="259" viewBox="0 0 259 259" fill="none" xmlns="http://www.w3.org/2000/svg">
<mask id="mask0_71_898" style="mask-type:alpha" maskUnits="userSpaceOnUse" x="0" y="0" width="259" height="259">
<ellipse cx="129.543" cy="129.717" rx="129.352" ry="128.86" transform="rotate(-180 129.543 129.717)" fill="#C4C4C4"/>
</mask>
<g mask="url(#mask0_71_898)">
<path d="M-37.8906 130.426C-19.8677 167.938 -7.12075 195.155 12.3097 194.82C22.6451 193.836 28.6101 190.361 34.6243 189.564C40.6484 188.471 46.7118 190.017 57.2637 191.867C69.9418 193.491 75.8871 190.45 88.6931 174.297C105.742 151.805 111.411 143.183 129.05 138.497C146.689 133.812 152.389 125.701 169.407 102.579C181.406 86.9681 188.385 82.7454 200.837 84.9897C211.379 87.352 217.452 89.1238 223.476 87.9426C229.49 87.0961 235.465 83.3064 245.801 81.8693C265.202 80.8259 277.958 109.578 296.001 146.559" stroke="white" stroke-miterlimit="10"/>
<path d="M-37.8906 149.059C-19.8677 186.227 -7.12075 211.357 12.3097 211.524C32.9805 208.355 36.1697 204.102 57.2637 208.788C69.9418 209.92 75.8871 207.173 88.6931 191.779C105.742 170.311 111.411 161.422 129.05 157.131C146.709 153.046 152.389 145.427 169.407 122.108C181.406 106.3 188.385 102.009 200.837 105.06C211.379 108.101 217.452 110.139 223.476 108.909C229.49 108.003 235.465 103.82 245.801 101.792C265.202 99.6954 277.958 129.747 296.001 165.212" stroke="white" stroke-miterlimit="10"/>
<path d="M-37.8906 167.683C-19.8677 203.522 -7.12075 226.161 12.3097 226.535C32.9805 223.976 36.1697 220.147 57.2637 224.055C69.9418 224.852 75.8871 222.529 88.6931 208.197C105.742 188.157 111.411 179.16 129.05 175.764C146.709 172.722 152.389 165.921 169.407 142.72C181.406 126.971 188.385 122.768 200.837 126.784C211.379 130.633 217.452 132.966 223.476 131.706C229.49 130.721 235.465 126.164 245.801 123.428C265.202 119.983 277.958 150.92 296.001 183.895" stroke="white" stroke-miterlimit="10"/>
<path d="M-37.8906 186.296C-19.8677 219.842 -7.12075 239.558 12.3097 239.853C32.9805 237.727 36.1697 234.331 57.2637 237.658C69.9418 238.318 75.8871 236.516 88.6931 223.533C105.742 205.333 111.411 196.415 129.05 194.407C146.709 192.891 152.389 186.976 169.407 164.405C181.406 149.02 188.385 145.014 200.837 150.172C211.379 154.956 217.452 157.594 223.476 156.275C229.49 155.29 235.465 150.28 245.801 146.707C265.202 141.618 277.958 173.038 296.001 202.547" stroke="white" stroke-miterlimit="10"/>
<path d="M-37.8906 204.9C-19.8677 235.178 -7.12075 251.557 12.3097 251.488C32.9805 249.578 36.1697 246.655 57.2637 249.608C69.9418 250.287 75.8871 249.145 88.6931 237.796C105.742 221.86 111.411 213.188 129.05 213.05C146.709 213.562 152.388 208.758 169.407 187.172C181.406 172.407 188.385 168.765 200.837 175.223C221.921 188.649 225.11 182.526 245.791 171.709C265.192 164.69 277.948 196.169 295.991 221.23" stroke="white" stroke-miterlimit="10"/>
<path d="M-37.8906 223.494C-19.8677 249.519 -7.12075 262.158 12.3097 261.43C32.9805 259.55 36.1697 257.118 57.2637 259.904C69.9418 260.78 75.8871 260.406 88.6931 250.976C105.742 237.688 111.411 229.429 129.05 231.683C146.709 234.715 152.388 231.191 169.407 211.013C181.406 197.144 188.385 193.984 200.837 201.918C221.921 217.529 225.11 211.17 245.791 198.384C265.192 189.151 277.948 220.275 295.991 239.922" stroke="white" stroke-miterlimit="10"/>
<path d="M-37.8906 242.087C-19.8677 262.886 -7.12075 271.371 12.3097 269.648C32.9805 267.601 36.1697 265.711 57.2637 268.506C69.9418 269.747 75.8871 270.278 88.6931 263.053C105.742 252.846 111.411 245.158 129.05 250.257C146.709 256.301 152.388 254.244 169.407 235.857C181.406 223.149 188.385 220.629 200.837 230.197C221.921 248.2 225.11 241.644 245.791 226.683C265.192 214.94 277.948 245.296 295.991 258.545" stroke="white" stroke-miterlimit="10"/>
<path d="M-37.8906 260.652C-19.8677 275.259 -7.12075 279.157 12.3097 276.243C32.9805 273.832 36.1697 272.464 57.2637 275.515C69.9418 277.307 75.8871 278.842 88.6931 274.117C105.742 267.385 111.411 260.455 129.05 268.95C146.709 278.507 152.388 278.074 169.407 261.902C181.406 250.631 188.385 248.899 200.837 260.258C221.921 280.85 225.11 274.127 245.791 256.803C265.192 242.265 277.948 271.43 295.991 277.316" stroke="white" stroke-miterlimit="10"/>
<path d="M-37.8906 -17.1729C-19.8677 -11.2669 -7.12075 17.8788 12.3097 3.33057C32.9805 -13.9836 36.1697 -20.7164 57.2637 -0.124405C69.9418 11.4512 75.8871 10.2799 88.6931 -1.75835C105.742 -17.9209 111.411 -18.3737 129.05 -8.81598C146.709 -0.321286 152.388 -7.24105 169.407 -13.9738C181.406 -18.4525 188.385 -17.1433 200.837 -15.3814C221.921 -12.3201 225.11 -13.6883 245.791 -16.0999C265.192 -19.0529 277.948 -15.1156 295.991 -0.508304" stroke="white" stroke-miterlimit="10"/>
<path d="M-37.8906 1.52908C-19.8677 14.7879 -7.12075 45.1345 12.3097 33.3915C32.9805 18.4397 36.1697 11.8841 57.2637 29.8874C69.9418 39.6026 75.8871 37.7619 88.6931 24.2275C105.742 5.85025 111.411 3.77332 129.05 9.8269C146.709 14.9552 152.388 7.26766 169.407 -2.96928C181.406 -9.80046 188.385 -9.68232 200.837 -8.42239C221.921 -5.60723 225.11 -7.52664 245.791 -9.57403C265.192 -11.2474 277.948 -2.77237 295.991 17.987" stroke="white" stroke-miterlimit="10"/>
<path d="M-37.8906 20.2315C-19.8677 39.9179 -7.12075 71.0028 12.3097 61.7699C32.9805 48.9737 36.1697 42.6248 57.2637 58.2361C69.9418 66.278 75.8871 63.9255 88.6931 49.141C105.742 28.9526 111.411 25.4287 129.05 28.4703C146.709 30.7244 152.388 22.4561 169.407 9.17759C181.406 0.3187 188.385 -0.665629 200.837 0.24979C221.921 3.03542 225.11 0.604157 245.791 -1.2759C265.192 -2.00429 277.948 10.6344 295.991 36.6598" stroke="white" stroke-miterlimit="10"/>
<path d="M-37.8906 38.9136C-19.8677 63.9842 -7.12075 95.4529 12.3097 88.4445C32.9805 77.617 36.1697 71.5044 57.2637 84.9306C69.9418 91.4566 75.8871 88.7005 88.6931 72.9711C105.742 51.3947 111.411 46.5913 129.05 47.0933C146.709 46.9752 152.388 38.2934 169.407 22.3474C181.406 11.638 188.385 9.80718 200.837 10.5356C221.921 13.4885 225.11 10.5355 245.791 8.65549C265.192 8.58659 277.948 24.9657 295.991 55.2434" stroke="white" stroke-miterlimit="10"/>
<path d="M-37.8906 57.5964C-19.8677 87.126 -7.12075 118.516 12.3097 113.437C22.6451 109.854 28.6101 104.883 34.6243 103.869C40.6484 102.55 46.7118 105.188 57.2637 109.972C69.9418 115.16 75.8871 112.108 88.6931 95.7388C105.742 73.1684 111.411 67.2526 129.05 65.7368C146.709 63.7681 152.388 54.8108 169.407 36.6107C181.406 24.3657 188.385 21.777 200.837 22.4857C221.921 25.8127 225.11 22.4167 245.791 20.2808C265.192 20.5859 277.948 40.2921 295.991 73.8476" stroke="white" stroke-miterlimit="10"/>
<path d="M-37.8906 76.2686C-19.8677 109.243 -7.12075 140.181 12.3097 136.735C22.6451 133.999 28.6101 129.422 34.6243 128.457C40.6484 127.178 46.7118 129.511 57.2637 133.379C69.9418 137.405 75.8871 134.186 88.6931 117.443C105.742 94.3014 111.411 87.4505 129.05 84.3991C146.709 81.0032 152.388 72.0164 169.407 51.9756C181.406 38.4707 188.385 35.2422 200.837 36.1182C221.921 40.0555 225.11 36.1871 245.791 33.6377C265.192 34.0117 277.948 56.6413 295.991 92.4804" stroke="white" stroke-miterlimit="10"/>
<path d="M-37.8906 94.9216C-19.8677 130.357 -7.12075 160.438 12.3097 158.341C22.6451 156.373 28.6101 152.14 34.6243 151.225C40.6484 150.004 46.7118 152.042 57.2637 155.073C69.9418 158.115 75.8871 154.837 88.6931 138.025C105.742 114.716 111.411 107.098 129.05 103.003C146.709 98.7211 152.388 89.8326 169.407 68.3548C181.406 53.8656 188.385 50.1743 200.837 51.3457C221.921 56.031 225.11 51.7887 245.791 48.6191C265.192 48.7865 277.948 73.9162 295.991 111.074" stroke="white" stroke-miterlimit="10"/>
<path d="M-37.8906 113.575C-19.8677 150.555 -7.12075 179.307 12.3097 178.264C22.6451 176.827 28.6101 173.037 34.6243 172.181C40.6484 171.019 46.7118 172.791 57.2637 175.134C69.9418 177.339 75.8871 174.15 88.6931 157.544C105.742 134.472 111.411 126.253 129.05 121.626C146.689 117 152.389 108.318 169.407 85.8265C181.406 70.6187 188.385 66.583 200.837 68.2465C211.379 70.1069 217.452 71.6523 223.476 70.5498C229.49 69.7624 235.465 66.3173 245.801 65.2936C265.202 64.9589 277.958 92.1852 296.001 129.688" stroke="white" stroke-miterlimit="10"/>
</g>
</svg>
